<svg id="Warstwa_1" data-name="Warstwa 1" xmlns="http://www.w3.org/2000/svg" width="321.35" height="71.54" viewBox="0 0 321.35 71.54"><defs><style>.cls-1{fill:#323031;}</style></defs><path class="cls-1" d="M168.72,13.33c-.08-.95-.19-1.89-.35-2.82a18.66,18.66,0,0,0-.7-2.74,12.7,12.7,0,0,0-.53-1.33,11.45,11.45,0,0,0-.66-1.25A10.5,10.5,0,0,0,165.65,4a9.67,9.67,0,0,0-1-1,11.4,11.4,0,0,0-2.32-1.63,12.73,12.73,0,0,0-2.65-1A11.74,11.74,0,0,0,156.86,0,11.61,11.61,0,0,0,154,.36a12.73,12.73,0,0,0-2.65,1A11.4,11.4,0,0,0,149.06,3a9.67,9.67,0,0,0-1,1,9.32,9.32,0,0,0-.83,1.15,11.52,11.52,0,0,0-.67,1.25c-.2.43-.37.88-.53,1.33a20,20,0,0,0-.69,2.74,26.48,26.48,0,0,0-.35,2.82,26.84,26.84,0,0,0-.09,2.83,19.2,19.2,0,0,0,.26,2.82,13.93,13.93,0,0,0,.32,1.39q.19.69.45,1.35a26,26,0,0,0,2.69,5c.53.79,1.07,1.56,1.62,2.34A27.27,27.27,0,0,0,152,31.26a10.47,10.47,0,0,0,1,1,9.48,9.48,0,0,0,1.15.85,7.29,7.29,0,0,0,1.28.64,5.91,5.91,0,0,0,.69.19,4.37,4.37,0,0,0,.72.06,4.17,4.17,0,0,0,.71-.06,5,5,0,0,0,.69-.19,6.66,6.66,0,0,0,1.28-.64,11,11,0,0,0,2.17-1.83A23.51,23.51,0,0,0,163.46,29c.56-.78,1.1-1.55,1.62-2.34a26,26,0,0,0,2.69-5c.17-.44.33-.89.46-1.35s.23-.93.31-1.39a17.94,17.94,0,0,0,.27-2.82C168.83,15.22,168.79,14.28,168.72,13.33Zm-22.11,3.8s5.24,1.2,8.6,8.23C155.21,25.36,146.16,25.21,146.61,17.13Zm11.9,8.23c3.35-7,8.6-8.23,8.6-8.23C167.55,25.21,158.51,25.36,158.51,25.36Z" transform="translate(-0.33)"/><polygon class="cls-1" points="309.66 63.23 312.15 61.02 304.53 61.02 304.53 63.23 309.66 63.23"/><polygon class="cls-1" points="313.81 69.29 302.55 69.28 302.55 55.37 313.39 55.37 313.39 53.08 299.99 53.08 299.99 71.54 314.07 71.54 314.07 69.29 313.81 69.29"/><polygon class="cls-1" points="42.7 53.08 40.15 53.08 40.15 71.54 52.41 71.54 54.9 69.28 42.7 69.28 42.7 53.08"/><rect class="cls-1" x="75.87" y="53.08" width="2.56" height="18.46"/><polygon class="cls-1" points="150.21 67.95 137.99 53.12 137.95 53.08 135.38 53.08 135.38 71.54 137.82 71.54 137.82 56.61 150.04 71.5 150.08 71.54 152.63 71.54 152.63 53.08 150.21 53.08 150.21 67.95"/><polygon class="cls-1" points="194.32 68.22 188.81 53.15 188.78 53.08 186.45 53.08 180.91 68.2 176.58 53.16 176.56 53.08 173.88 53.08 179.23 71.46 179.26 71.54 182.1 71.54 187.6 56.7 193.08 71.54 195.92 71.54 201.31 53.22 201.35 53.08 198.68 53.08 194.32 68.22"/><path class="cls-1" d="M277.37,61.91a4,4,0,0,0,1.27-3.12v-.64a4.93,4.93,0,0,0-.46-2.13,4.36,4.36,0,0,0-1.29-1.6,5.66,5.66,0,0,0-2-1,9.15,9.15,0,0,0-2.58-.34h-9.5V71.54h2.56V55.37h6.78a4.43,4.43,0,0,1,3.2,1.06,2.62,2.62,0,0,1,.74,1.9v.6a2.28,2.28,0,0,1-.32,1.21,2.72,2.72,0,0,1-.84.88,3.76,3.76,0,0,1-1.2.54,6.68,6.68,0,0,1-1.39.21h-6V64h5.48l4.45,7.53,0,.06h2.83l-4.82-8.13A6.52,6.52,0,0,0,277.37,61.91Z" transform="translate(-0.33)"/><path class="cls-1" d="M8.55,52.86.4,71.38l-.07.16H3.17l2.39-5.43L6,65h7.87l2.85,6.53h2.82L11.22,52.86Zm4.38,9.94H7l2.94-7Z" transform="translate(-0.33)"/><path class="cls-1" d="M230.82,52.86l-8.16,18.52-.07.16h2.85l2.39-5.43.46-1.1h7.87L239,71.47l0,.07h2.82l-8.34-18.68Zm4.37,9.94h-6l2.93-7Z" transform="translate(-0.33)"/><polygon class="cls-1" points="109.47 63.23 111.96 61.02 104.35 61.02 104.35 63.23 109.47 63.23"/><polygon class="cls-1" points="102.36 69.28 102.36 55.37 113.2 55.37 113.2 53.08 99.81 53.08 99.81 71.54 113.88 71.54 113.88 69.29 113.62 69.29 102.36 69.28"/><path class="cls-1" d="M316.07,53.43v-.35h2.21v.35h-.91v1.94H317V53.43Z" transform="translate(-0.33)"/><path class="cls-1" d="M319.29,53.08l1,1.36,1-1.36h.43v2.29h-.41V53.64l-.88,1.24h-.25l-.87-1.24v1.73h-.41V53.08Z" transform="translate(-0.33)"/></svg>