<svg width="252" height="48" viewBox="0 0 252 48" fill="none" xmlns="http://www.w3.org/2000/svg">
<mask id="path-1-inside-1_2815_125551" fill="white">
<path fill-rule="evenodd" clip-rule="evenodd" d="M252 0V29.8571L235.35 48H0V25H12V23H0V0H252Z"/>
</mask>
<path fill-rule="evenodd" clip-rule="evenodd" d="M252 0V29.8571L235.35 48H0V25H12V23H0V0H252Z" fill="black" fill-opacity="0.6"/>
<path d="M252 29.8571L252.737 30.5333L253 30.2465V29.8571H252ZM252 0H253V-1H252V0ZM235.35 48V49H235.79L236.087 48.6761L235.35 48ZM0 48H-1V49H0V48ZM0 25V24H-1V25H0ZM12 25V26H13V25H12ZM12 23H13V22H12V23ZM0 23H-1V24H0V23ZM0 0V-1H-1V0H0ZM253 29.8571V0H251V29.8571H253ZM236.087 48.6761L252.737 30.5333L251.263 29.181L234.613 47.3239L236.087 48.6761ZM0 49H235.35V47H0V49ZM-1 25V48H1V25H-1ZM12 24H0V26H12V24ZM11 23V25H13V23H11ZM0 24H12V22H0V24ZM-1 0V23H1V0H-1ZM252 -1H0V1H252V-1Z" fill="#FD0130" mask="url(#path-1-inside-1_2815_125551)"/>
</svg>
