<svg width="212" height="48" viewBox="0 0 212 48" fill="none" xmlns="http://www.w3.org/2000/svg">
<mask id="path-1-inside-1_2815_151373" fill="white">
<path fill-rule="evenodd" clip-rule="evenodd" d="M212 0V29.8571L195.35 48H0V25H12V23H0V0H212Z"/>
</mask>
<path fill-rule="evenodd" clip-rule="evenodd" d="M212 0V29.8571L195.35 48H0V25H12V23H0V0H212Z" fill="#FD0130"/>
<path d="M212 29.8571L212.737 30.5333L213 30.2465V29.8571H212ZM212 0H213V-1H212V0ZM195.35 48V49H195.79L196.087 48.6761L195.35 48ZM0 48H-1V49H0V48ZM0 25V24H-1V25H0ZM12 25V26H13V25H12ZM12 23H13V22H12V23ZM0 23H-1V24H0V23ZM0 0V-1H-1V0H0ZM213 29.8571V0H211V29.8571H213ZM196.087 48.6761L212.737 30.5333L211.263 29.181L194.613 47.3239L196.087 48.6761ZM0 49H195.35V47H0V49ZM-1 25V48H1V25H-1ZM12 24H0V26H12V24ZM11 23V25H13V23H11ZM0 24H12V22H0V24ZM-1 0V23H1V0H-1ZM212 -1H0V1H212V-1Z" fill="#FD0130" mask="url(#path-1-inside-1_2815_151373)"/>
</svg>
