<svg width="608" height="48" viewBox="0 0 608 48" fill="none" xmlns="http://www.w3.org/2000/svg">
<mask id="path-1-inside-1_3494_17155" fill="white">
<path fill-rule="evenodd" clip-rule="evenodd" d="M608 0V29.8571L591.35 48H0V25H12V23H0V0H608Z"/>
</mask>
<path fill-rule="evenodd" clip-rule="evenodd" d="M608 0V29.8571L591.35 48H0V25H12V23H0V0H608Z" fill="black" fill-opacity="0.6"/>
<path d="M608 29.8571L608.737 30.5333L609 30.2465V29.8571H608ZM608 0H609V-1H608V0ZM591.35 48V49H591.79L592.087 48.6761L591.35 48ZM0 48H-1V49H0V48ZM0 25V24H-1V25H0ZM12 25V26H13V25H12ZM12 23H13V22H12V23ZM0 23H-1V24H0V23ZM0 0V-1H-1V0H0ZM609 29.8571V0H607V29.8571H609ZM592.087 48.6761L608.737 30.5333L607.263 29.181L590.613 47.3239L592.087 48.6761ZM0 49H591.35V47H0V49ZM-1 25V48H1V25H-1ZM12 24H0V26H12V24ZM11 23V25H13V23H11ZM0 24H12V22H0V24ZM-1 0V23H1V0H-1ZM608 -1H0V1H608V-1Z" fill="white" mask="url(#path-1-inside-1_3494_17155)"/>
</svg>
