<svg 
 xmlns="http://www.w3.org/2000/svg"
 xmlns:xlink="http://www.w3.org/1999/xlink"
 width="56px" height="24px">
<path fill-rule="evenodd"  fill="rgb(0, 0, 0)"
 d="M55.974,18.227 C55.974,19.261 55.981,20.289 55.974,21.323 C55.974,21.712 55.950,22.094 55.944,22.483 C55.944,22.566 55.901,22.608 55.821,22.614 C55.759,22.620 55.692,22.620 55.630,22.620 C55.193,22.638 54.757,22.656 54.320,22.680 C54.154,22.686 53.994,22.704 53.828,22.716 C53.723,22.728 53.680,22.686 53.668,22.578 C53.637,22.208 53.607,21.843 53.564,21.473 C53.508,21.000 53.440,20.528 53.391,20.056 C53.336,19.554 53.305,19.046 53.256,18.538 C53.225,18.161 53.188,17.785 53.151,17.408 C53.121,17.080 53.090,16.757 53.059,16.428 C53.022,16.046 52.985,15.669 52.955,15.287 C52.893,14.515 52.832,13.738 52.776,12.967 C52.764,12.752 52.776,12.758 53.004,12.740 C53.484,12.704 53.963,12.639 54.443,12.621 C54.824,12.609 55.206,12.633 55.587,12.657 C55.778,12.669 55.815,12.836 55.833,12.985 C55.858,13.183 55.876,13.380 55.888,13.583 C55.913,13.995 55.938,14.408 55.944,14.820 C55.968,15.956 55.981,17.086 55.999,18.221 C55.987,18.227 55.981,18.227 55.974,18.227 ZM55.649,11.246 C55.649,11.366 55.612,11.402 55.489,11.384 C55.126,11.348 54.763,11.306 54.400,11.270 C54.302,11.258 54.295,11.198 54.295,11.127 C54.283,10.750 54.277,10.373 54.265,10.003 C54.246,9.232 54.234,8.455 54.215,7.684 C54.209,7.511 54.222,7.499 54.394,7.511 C54.744,7.528 55.101,7.546 55.452,7.570 C55.642,7.582 55.679,7.612 55.679,7.797 C55.685,8.371 55.679,8.945 55.679,9.519 C55.673,9.525 55.661,9.525 55.649,9.525 C55.649,10.099 55.649,10.672 55.649,11.246 ZM53.643,11.342 C53.367,11.354 53.090,11.372 52.813,11.390 C52.702,11.396 52.647,11.366 52.641,11.252 C52.616,10.983 52.586,10.714 52.555,10.451 C52.499,9.997 52.438,9.549 52.376,9.094 C52.370,9.059 52.376,9.017 52.370,8.975 C52.340,8.700 52.309,8.425 52.278,8.150 C52.266,8.042 52.260,7.929 52.272,7.821 C52.278,7.779 52.327,7.714 52.364,7.708 C52.721,7.654 53.078,7.606 53.434,7.558 C53.539,7.546 53.576,7.594 53.582,7.690 C53.619,8.276 53.656,8.861 53.693,9.453 C53.717,9.889 53.742,10.320 53.766,10.702 C53.766,10.905 53.766,11.055 53.766,11.204 C53.766,11.288 53.736,11.336 53.643,11.342 ZM51.485,21.263 C50.931,21.347 50.378,21.359 49.824,21.269 C49.701,21.246 49.658,21.192 49.652,21.078 C49.603,20.463 49.547,19.847 49.492,19.231 C49.473,19.052 49.455,18.873 49.443,18.693 C49.406,18.269 49.375,17.845 49.332,17.426 C49.283,16.960 49.209,16.500 49.160,16.034 C49.111,15.609 49.074,15.179 49.024,14.755 C48.963,14.205 48.895,13.655 48.828,13.099 C48.797,12.842 48.766,12.591 48.729,12.334 C48.674,11.969 48.612,11.611 48.563,11.246 C48.520,10.953 48.489,10.660 48.446,10.367 C48.391,9.973 48.323,9.579 48.268,9.184 C48.219,8.849 48.182,8.515 48.126,8.180 C48.077,7.869 48.010,7.558 47.960,7.248 C47.917,6.996 47.887,6.739 47.844,6.482 C47.788,6.142 47.721,5.807 47.665,5.466 C47.616,5.191 47.579,4.911 47.530,4.636 C47.475,4.355 47.413,4.074 47.358,3.793 C47.308,3.542 47.265,3.285 47.222,3.034 C47.210,2.962 47.235,2.914 47.321,2.902 C47.376,2.896 47.431,2.872 47.487,2.872 C47.991,2.825 48.502,2.783 49.006,2.741 C49.147,2.729 49.289,2.741 49.430,2.741 C49.424,2.729 49.424,2.723 49.424,2.711 C49.633,2.735 49.849,2.753 50.058,2.777 C50.168,2.789 50.224,2.872 50.230,2.974 C50.273,3.494 50.310,4.008 50.347,4.528 C50.384,5.102 50.421,5.676 50.458,6.249 C50.488,6.692 50.519,7.134 50.556,7.576 C50.605,8.156 50.654,8.736 50.697,9.310 C50.716,9.525 50.728,9.746 50.740,9.961 C50.771,10.373 50.814,10.786 50.845,11.198 C50.888,11.706 50.919,12.214 50.962,12.716 C50.993,13.153 51.023,13.589 51.060,14.025 C51.091,14.474 51.122,14.916 51.159,15.364 C51.208,15.938 51.257,16.506 51.306,17.080 C51.362,17.785 51.411,18.490 51.472,19.195 C51.522,19.823 51.577,20.451 51.632,21.078 C51.645,21.210 51.620,21.240 51.485,21.263 ZM47.579,15.627 C47.634,16.129 47.677,16.625 47.727,17.127 C47.788,17.719 47.862,18.311 47.917,18.897 C47.967,19.405 47.991,19.919 48.034,20.427 C48.065,20.863 48.102,21.305 48.139,21.742 C48.139,21.777 48.157,21.807 48.170,21.843 C48.200,21.969 48.139,22.052 48.003,22.070 C47.634,22.118 47.265,22.166 46.896,22.214 C46.626,22.250 46.361,22.297 46.091,22.345 C45.968,22.363 45.931,22.333 45.906,22.220 C45.857,21.975 45.789,21.724 45.740,21.479 C45.709,21.335 45.697,21.186 45.666,21.042 C45.605,20.726 45.531,20.409 45.469,20.092 C45.377,19.638 45.297,19.178 45.205,18.723 C45.150,18.448 45.082,18.167 45.027,17.892 C44.984,17.695 44.953,17.504 44.922,17.307 C44.873,17.056 44.830,16.811 44.781,16.560 C44.719,16.243 44.664,15.932 44.602,15.615 C44.547,15.328 44.479,15.035 44.424,14.749 C44.387,14.575 44.356,14.396 44.325,14.223 C44.252,13.786 44.178,13.344 44.110,12.908 C44.104,12.872 44.104,12.824 44.098,12.770 C44.092,12.573 44.086,12.567 44.282,12.531 C44.596,12.465 44.916,12.418 45.223,12.340 C45.605,12.244 45.998,12.244 46.386,12.190 C46.589,12.167 46.786,12.173 46.970,12.250 C47.032,12.274 47.093,12.352 47.112,12.418 C47.284,13.063 47.376,13.727 47.438,14.390 C47.475,14.802 47.536,15.215 47.579,15.627 ZM46.638,10.941 C46.411,10.929 46.189,10.905 45.962,10.899 C45.857,10.893 45.746,10.911 45.642,10.929 C45.494,10.953 45.445,10.923 45.426,10.780 C45.377,10.433 45.334,10.081 45.291,9.734 C45.254,9.441 45.242,9.148 45.193,8.861 C45.137,8.562 45.113,8.270 45.094,7.971 C45.082,7.750 45.039,7.534 45.008,7.313 C44.996,7.206 45.045,7.164 45.150,7.164 C45.359,7.170 45.549,7.164 45.740,7.158 C45.925,7.158 46.109,7.158 46.294,7.158 C46.454,7.158 46.490,7.200 46.503,7.349 C46.558,8.036 46.620,8.718 46.675,9.405 C46.712,9.865 46.755,10.326 46.792,10.786 C46.804,10.917 46.773,10.947 46.638,10.941 ZM44.688,11.079 C44.442,11.103 44.196,11.144 43.950,11.180 C43.852,11.192 43.821,11.162 43.803,11.067 C43.723,10.666 43.624,10.266 43.538,9.865 C43.489,9.638 43.452,9.405 43.403,9.178 C43.348,8.927 43.280,8.682 43.231,8.431 C43.175,8.174 43.132,7.917 43.089,7.660 C43.083,7.630 43.132,7.576 43.163,7.564 C43.501,7.475 43.833,7.397 44.172,7.313 C44.332,7.277 44.387,7.325 44.412,7.487 C44.467,7.851 44.535,8.216 44.596,8.574 C44.633,8.819 44.664,9.059 44.701,9.304 C44.762,9.722 44.830,10.134 44.891,10.553 C44.904,10.648 44.916,10.738 44.928,10.828 C44.934,11.049 44.922,11.055 44.688,11.079 ZM44.282,18.998 C44.190,19.680 43.840,20.235 43.360,20.720 C42.991,21.090 42.579,21.401 42.117,21.652 C41.767,21.843 41.422,22.040 41.066,22.202 C40.697,22.369 40.309,22.495 39.928,22.632 C39.694,22.716 39.454,22.800 39.214,22.865 C38.913,22.949 38.612,23.027 38.310,23.104 C38.077,23.164 37.837,23.230 37.603,23.284 C37.419,23.326 37.228,23.361 37.037,23.397 C36.705,23.457 36.379,23.523 36.047,23.577 C35.690,23.630 35.327,23.666 34.971,23.708 C34.552,23.756 34.134,23.810 33.716,23.852 C33.531,23.869 33.347,23.881 33.169,23.899 C32.701,23.929 32.234,23.965 31.766,23.995 C31.668,24.001 31.576,23.995 31.477,24.001 C31.397,24.007 31.354,23.971 31.348,23.893 C31.342,23.851 31.336,23.810 31.336,23.768 C31.317,23.433 31.293,23.098 31.274,22.764 C31.256,22.477 31.250,22.190 31.225,21.897 C31.170,21.156 31.108,20.421 31.047,19.680 C31.010,19.225 30.979,18.777 30.942,18.323 C30.917,18.006 30.887,17.683 30.856,17.367 C30.813,16.900 30.770,16.434 30.721,15.968 C30.708,15.830 30.684,15.699 30.665,15.561 C30.647,15.412 30.641,15.269 30.622,15.119 C30.604,14.958 30.573,14.796 30.548,14.635 C30.548,14.623 30.542,14.611 30.542,14.599 C30.505,14.264 30.475,13.930 30.432,13.601 C30.382,13.236 30.327,12.872 30.278,12.513 C30.222,12.137 30.179,11.760 30.118,11.390 C30.063,11.055 30.001,10.714 29.940,10.379 C29.896,10.140 29.866,9.901 29.829,9.662 C29.767,9.304 29.706,8.945 29.644,8.586 C29.601,8.329 29.558,8.072 29.515,7.815 C29.460,7.516 29.398,7.212 29.337,6.913 C29.300,6.722 29.263,6.530 29.232,6.339 C29.171,6.022 29.109,5.705 29.054,5.383 C29.005,5.132 28.968,4.881 28.912,4.636 C28.857,4.367 28.789,4.098 28.734,3.829 C28.691,3.631 28.660,3.440 28.623,3.243 C28.568,2.980 28.513,2.717 28.457,2.454 C28.408,2.203 28.359,1.958 28.304,1.707 C28.285,1.605 28.334,1.557 28.427,1.522 C28.962,1.324 29.497,1.127 30.038,0.936 C30.616,0.727 31.194,0.529 31.779,0.320 C32.049,0.225 32.320,0.123 32.590,0.021 C32.701,-0.020 32.732,-0.003 32.726,0.123 C32.726,0.368 32.713,0.613 32.713,0.864 C32.713,0.924 32.713,0.984 32.713,1.037 C32.701,1.037 32.689,1.037 32.676,1.037 C32.676,2.819 32.670,4.606 32.676,6.387 C32.683,7.493 32.701,8.598 32.732,9.704 C32.756,10.451 32.806,11.198 32.849,11.939 C32.873,12.328 32.898,12.710 32.947,13.099 C32.990,13.464 33.064,13.828 33.125,14.193 C33.156,14.390 33.193,14.593 33.236,14.790 C33.261,14.886 33.292,14.988 33.347,15.071 C33.371,15.107 33.458,15.119 33.513,15.131 C33.550,15.137 33.593,15.107 33.630,15.107 C34.190,15.089 34.755,15.053 35.315,15.059 C35.752,15.065 36.188,15.107 36.619,15.155 C37.056,15.203 37.492,15.263 37.929,15.340 C38.316,15.406 38.704,15.502 39.091,15.585 C39.393,15.651 39.700,15.711 40.002,15.795 C40.365,15.896 40.715,16.022 41.072,16.141 C41.281,16.213 41.496,16.285 41.699,16.368 C41.958,16.476 42.210,16.589 42.462,16.709 C42.622,16.781 42.776,16.864 42.923,16.954 C43.415,17.241 43.883,17.558 44.147,18.072 C44.295,18.359 44.326,18.681 44.282,18.998 ZM39.399,19.094 C39.110,18.968 38.827,18.837 38.538,18.711 C38.255,18.592 37.960,18.478 37.677,18.365 C37.486,18.287 37.296,18.203 37.099,18.132 C36.754,18.006 36.410,17.887 36.059,17.773 C35.893,17.707 35.703,17.665 35.580,17.629 C35.352,17.618 35.327,17.647 35.333,17.803 C35.333,17.821 35.340,17.845 35.340,17.863 C35.395,18.257 35.450,18.646 35.506,19.040 C35.530,19.201 35.555,19.363 35.580,19.524 C35.635,19.889 35.690,20.259 35.739,20.624 C35.782,20.929 35.819,21.234 35.862,21.538 C35.881,21.652 35.967,21.682 36.059,21.616 C36.275,21.467 36.484,21.311 36.699,21.162 C37.049,20.917 37.394,20.666 37.744,20.421 C38.101,20.164 38.458,19.913 38.815,19.656 C39.011,19.512 39.214,19.369 39.411,19.219 C39.479,19.172 39.479,19.124 39.399,19.094 ZM27.652,21.640 C27.652,21.927 27.627,22.208 27.621,22.495 C27.621,22.566 27.584,22.602 27.516,22.614 C27.485,22.620 27.461,22.620 27.430,22.626 C26.987,22.644 26.538,22.668 26.095,22.686 C25.911,22.698 25.726,22.716 25.542,22.722 C25.382,22.728 25.357,22.704 25.345,22.555 C25.327,22.339 25.314,22.118 25.290,21.897 C25.259,21.550 25.222,21.198 25.185,20.851 C25.142,20.427 25.087,20.002 25.044,19.572 C24.970,18.855 24.896,18.144 24.828,17.426 C24.773,16.864 24.730,16.297 24.681,15.735 C24.644,15.340 24.613,14.946 24.582,14.545 C24.546,14.043 24.509,13.541 24.472,13.045 C24.472,13.009 24.472,12.973 24.472,12.938 C24.484,12.776 24.509,12.758 24.681,12.746 C25.179,12.704 25.671,12.651 26.169,12.621 C26.446,12.603 26.723,12.627 27.000,12.639 C27.123,12.645 27.246,12.663 27.362,12.704 C27.418,12.722 27.485,12.794 27.498,12.854 C27.547,13.087 27.596,13.320 27.602,13.559 C27.639,15.149 27.664,16.739 27.695,18.329 C27.676,18.329 27.664,18.329 27.652,18.329 C27.652,19.435 27.652,20.534 27.652,21.640 ZM27.006,11.366 C26.704,11.342 26.397,11.306 26.095,11.270 C26.016,11.264 26.003,11.210 25.997,11.144 C25.985,10.804 25.960,10.457 25.954,10.116 C25.948,9.734 25.954,9.351 25.954,8.969 C25.936,8.969 25.923,8.969 25.911,8.969 C25.911,8.533 25.911,8.102 25.911,7.666 C25.911,7.516 25.923,7.499 26.077,7.511 C26.428,7.528 26.778,7.534 27.123,7.576 C27.350,7.600 27.393,7.612 27.393,7.845 C27.375,8.921 27.369,9.997 27.338,11.067 C27.326,11.455 27.362,11.396 27.006,11.366 ZM25.284,11.336 C25.038,11.348 24.792,11.366 24.552,11.378 C24.380,11.390 24.343,11.366 24.324,11.204 C24.275,10.756 24.232,10.302 24.183,9.853 C24.152,9.525 24.115,9.202 24.084,8.873 C24.054,8.592 24.023,8.317 23.986,8.036 C23.980,7.965 23.943,7.899 23.955,7.833 C23.961,7.785 24.017,7.708 24.060,7.702 C24.380,7.642 24.699,7.594 25.019,7.546 C25.007,7.552 25.007,7.558 25.007,7.564 C25.050,7.564 25.087,7.564 25.130,7.564 C25.234,7.558 25.284,7.606 25.290,7.708 C25.327,8.455 25.357,9.208 25.400,9.955 C25.419,10.350 25.462,10.744 25.487,11.133 C25.499,11.318 25.480,11.330 25.284,11.336 ZM21.790,21.305 C21.686,21.293 21.581,21.287 21.483,21.258 C21.440,21.246 21.384,21.192 21.384,21.156 C21.341,20.761 21.310,20.361 21.267,19.966 C21.224,19.518 21.175,19.076 21.126,18.628 C21.107,18.442 21.095,18.251 21.077,18.066 C21.040,17.629 21.009,17.199 20.960,16.763 C20.911,16.332 20.843,15.908 20.788,15.478 C20.738,15.053 20.708,14.629 20.652,14.211 C20.597,13.774 20.529,13.338 20.474,12.902 C20.431,12.567 20.400,12.226 20.357,11.892 C20.308,11.521 20.240,11.156 20.185,10.786 C20.185,10.768 20.179,10.756 20.179,10.738 C20.136,10.397 20.099,10.057 20.050,9.716 C19.988,9.274 19.920,8.837 19.847,8.395 C19.804,8.108 19.748,7.827 19.705,7.546 C19.656,7.218 19.613,6.895 19.551,6.566 C19.465,6.088 19.373,5.610 19.287,5.126 C19.238,4.839 19.201,4.546 19.145,4.259 C19.096,4.002 19.041,3.751 18.986,3.494 C18.955,3.339 18.918,3.189 18.899,3.034 C18.893,2.998 18.930,2.932 18.961,2.920 C19.035,2.890 19.121,2.878 19.207,2.872 C19.699,2.825 20.197,2.783 20.689,2.741 C20.837,2.729 20.978,2.729 21.181,2.717 C21.323,2.729 21.532,2.747 21.741,2.777 C21.864,2.795 21.913,2.884 21.925,2.992 C21.944,3.159 21.962,3.327 21.969,3.494 C22.005,4.116 22.042,4.731 22.079,5.353 C22.110,5.819 22.147,6.285 22.184,6.751 C22.227,7.313 22.282,7.869 22.325,8.431 C22.393,9.250 22.454,10.069 22.516,10.882 C22.577,11.659 22.633,12.430 22.688,13.207 C22.719,13.655 22.750,14.109 22.793,14.557 C22.848,15.185 22.916,15.807 22.965,16.434 C23.014,17.044 23.051,17.647 23.100,18.257 C23.143,18.831 23.199,19.411 23.242,19.984 C23.266,20.301 23.279,20.618 23.297,20.935 C23.303,20.989 23.322,21.042 23.334,21.096 C23.359,21.198 23.322,21.246 23.211,21.263 C22.737,21.341 22.270,21.365 21.790,21.305 ZM19.201,14.976 C19.256,15.448 19.293,15.920 19.348,16.392 C19.410,16.990 19.484,17.588 19.545,18.185 C19.594,18.669 19.625,19.154 19.662,19.632 C19.699,20.080 19.724,20.522 19.767,20.971 C19.791,21.246 19.834,21.509 19.865,21.772 C19.871,22.118 19.865,22.064 19.514,22.124 C19.102,22.196 18.684,22.250 18.272,22.303 C18.094,22.327 17.915,22.345 17.737,22.363 C17.645,22.375 17.614,22.315 17.602,22.244 C17.546,21.963 17.497,21.676 17.442,21.395 C17.399,21.186 17.350,20.977 17.306,20.767 C17.251,20.510 17.202,20.253 17.153,19.996 C17.097,19.733 17.048,19.476 16.993,19.213 C16.937,18.944 16.894,18.675 16.839,18.412 C16.796,18.197 16.747,17.988 16.704,17.773 C16.655,17.528 16.599,17.283 16.556,17.038 C16.476,16.613 16.408,16.189 16.329,15.771 C16.273,15.496 16.206,15.227 16.156,14.952 C16.113,14.713 16.083,14.468 16.039,14.229 C15.996,13.972 15.947,13.715 15.904,13.458 C15.861,13.213 15.818,12.973 15.781,12.728 C15.757,12.585 15.781,12.561 15.929,12.531 C16.273,12.465 16.618,12.412 16.956,12.334 C17.350,12.238 17.755,12.220 18.155,12.190 C18.291,12.184 18.426,12.184 18.555,12.196 C18.703,12.208 18.807,12.316 18.832,12.477 C18.906,12.944 18.986,13.410 19.053,13.876 C19.109,14.241 19.158,14.605 19.201,14.976 ZM17.263,10.929 C17.183,10.929 17.153,10.893 17.147,10.828 C17.122,10.672 17.091,10.511 17.073,10.356 C17.024,9.955 16.980,9.549 16.937,9.142 C16.907,8.855 16.876,8.568 16.845,8.282 C16.814,7.977 16.778,7.672 16.747,7.367 C16.747,7.349 16.741,7.325 16.741,7.307 C16.716,7.200 16.734,7.170 16.857,7.164 C17.042,7.164 17.239,7.164 17.442,7.158 C17.620,7.158 17.805,7.158 17.983,7.158 C18.137,7.158 18.168,7.182 18.186,7.331 C18.223,7.666 18.254,8.001 18.284,8.335 C18.340,8.945 18.389,9.549 18.438,10.158 C18.450,10.320 18.450,10.487 18.463,10.648 C18.463,10.684 18.469,10.726 18.481,10.762 C18.518,10.911 18.494,10.941 18.334,10.941 C17.977,10.935 17.620,10.929 17.263,10.929 ZM15.597,11.192 C15.566,11.162 15.504,11.121 15.486,11.067 C15.431,10.858 15.388,10.648 15.344,10.439 C15.277,10.128 15.215,9.818 15.154,9.507 C15.111,9.292 15.068,9.070 15.025,8.855 C14.975,8.628 14.920,8.401 14.871,8.174 C14.834,8.013 14.797,7.845 14.772,7.684 C14.766,7.648 14.816,7.576 14.852,7.564 C15.178,7.475 15.498,7.397 15.824,7.319 C16.033,7.271 16.095,7.313 16.126,7.558 C16.169,7.851 16.193,8.144 16.236,8.437 C16.285,8.760 16.353,9.082 16.402,9.405 C16.452,9.740 16.495,10.069 16.544,10.403 C16.562,10.541 16.599,10.672 16.624,10.804 C16.655,10.959 16.624,11.031 16.476,11.055 C16.199,11.109 15.916,11.144 15.597,11.192 ZM15.812,18.000 C15.972,18.299 16.021,18.634 15.978,18.968 C15.923,19.375 15.781,19.751 15.554,20.098 C15.314,20.457 15.018,20.767 14.686,21.042 C14.170,21.473 13.585,21.813 12.977,22.094 C12.546,22.292 12.091,22.453 11.642,22.620 C11.384,22.716 11.125,22.800 10.861,22.877 C10.590,22.955 10.320,23.021 10.049,23.086 C9.784,23.152 9.520,23.224 9.255,23.278 C9.040,23.326 8.825,23.349 8.604,23.391 C8.351,23.439 8.105,23.493 7.847,23.529 C7.478,23.583 7.109,23.636 6.740,23.678 C6.297,23.732 5.848,23.786 5.399,23.834 C5.178,23.857 4.962,23.869 4.741,23.881 C4.243,23.911 3.739,23.947 3.240,23.977 C3.056,23.989 3.056,23.977 3.044,23.798 C3.013,23.290 2.976,22.788 2.945,22.280 C2.914,21.843 2.884,21.407 2.853,20.977 C2.810,20.439 2.767,19.895 2.724,19.357 C2.693,19.004 2.674,18.646 2.644,18.293 C2.595,17.743 2.539,17.199 2.484,16.649 C2.459,16.386 2.435,16.129 2.404,15.866 C2.361,15.514 2.312,15.167 2.269,14.814 C2.225,14.468 2.201,14.115 2.158,13.768 C2.121,13.446 2.066,13.117 2.023,12.794 C1.967,12.394 1.912,11.999 1.850,11.599 C1.795,11.258 1.727,10.917 1.672,10.577 C1.629,10.314 1.598,10.051 1.561,9.794 C1.518,9.513 1.463,9.232 1.414,8.951 C1.346,8.545 1.272,8.144 1.205,7.738 C1.155,7.433 1.106,7.134 1.051,6.829 C0.965,6.399 0.872,5.968 0.786,5.532 C0.737,5.269 0.694,5.006 0.645,4.749 C0.596,4.492 0.534,4.235 0.479,3.972 C0.436,3.769 0.399,3.560 0.356,3.357 C0.300,3.088 0.245,2.825 0.190,2.556 C0.128,2.263 0.061,1.970 0.005,1.671 C-0.019,1.557 0.067,1.522 0.153,1.492 C0.485,1.372 0.811,1.253 1.143,1.133 C1.451,1.020 1.758,0.912 2.066,0.804 C2.299,0.721 2.539,0.631 2.773,0.541 C3.087,0.428 3.394,0.320 3.708,0.207 C3.837,0.159 3.960,0.111 4.089,0.069 C4.151,0.045 4.218,0.021 4.286,0.009 C4.403,-0.014 4.434,0.015 4.427,0.129 C4.415,0.464 4.409,0.798 4.397,1.139 C4.390,1.396 4.390,1.647 4.390,1.904 C4.390,2.651 4.390,3.398 4.390,4.145 C4.372,4.163 4.366,4.163 4.360,4.163 C4.360,4.863 4.347,5.562 4.360,6.261 C4.390,7.690 4.421,9.124 4.470,10.553 C4.489,11.174 4.538,11.802 4.581,12.424 C4.606,12.752 4.643,13.075 4.680,13.398 C4.704,13.625 4.729,13.852 4.778,14.079 C4.839,14.378 4.913,14.671 4.993,14.964 C5.036,15.119 5.092,15.143 5.258,15.107 C5.270,15.107 5.282,15.101 5.295,15.101 C5.910,15.083 6.525,15.059 7.134,15.053 C7.429,15.053 7.730,15.071 8.019,15.107 C8.401,15.149 8.776,15.215 9.157,15.275 C9.588,15.340 10.012,15.412 10.436,15.490 C10.682,15.538 10.928,15.603 11.168,15.663 C11.439,15.729 11.710,15.801 11.980,15.878 C12.220,15.944 12.466,16.022 12.700,16.099 C12.952,16.183 13.204,16.273 13.450,16.374 C13.665,16.464 13.881,16.572 14.090,16.667 C14.490,16.852 14.859,17.080 15.209,17.343 C15.449,17.528 15.670,17.737 15.812,18.000 ZM11.051,19.070 C10.996,19.046 10.941,19.022 10.885,18.998 C10.559,18.867 10.240,18.735 9.914,18.604 C9.545,18.448 9.176,18.287 8.800,18.144 C8.437,18.006 8.062,17.881 7.693,17.761 C7.527,17.689 7.355,17.659 7.238,17.629 C7.029,17.624 6.998,17.659 7.017,17.809 C7.035,17.934 7.060,18.060 7.078,18.191 C7.103,18.335 7.115,18.484 7.140,18.628 C7.183,18.891 7.226,19.148 7.269,19.411 C7.318,19.739 7.361,20.074 7.404,20.409 C7.460,20.785 7.521,21.162 7.576,21.544 C7.595,21.652 7.681,21.688 7.773,21.628 C7.804,21.610 7.829,21.580 7.859,21.562 C8.296,21.252 8.727,20.941 9.163,20.630 C9.495,20.391 9.827,20.146 10.166,19.907 C10.467,19.692 10.769,19.488 11.070,19.267 C11.193,19.178 11.181,19.130 11.051,19.070 Z"/>
</svg>