<svg 
 xmlns="http://www.w3.org/2000/svg"
 xmlns:xlink="http://www.w3.org/1999/xlink"
 width="90px" height="16px">
<path fill-rule="evenodd"  fill="rgb(0, 0, 0)"
 d="M79.803,7.088 L79.343,7.088 L79.343,4.374 L79.851,4.374 C80.986,4.374 81.977,4.518 81.977,5.750 C81.977,6.939 80.890,7.088 79.803,7.088 M86.036,10.801 C85.673,10.334 85.061,9.934 84.924,9.848 C84.788,9.757 84.924,9.718 84.924,9.718 C87.389,8.998 88.452,7.979 88.452,5.559 C88.452,1.528 84.972,0.001 80.864,0.001 L72.867,0.001 L72.867,16.000 L79.343,16.000 L79.343,10.865 C79.343,10.865 79.386,10.683 79.507,10.865 L82.364,16.000 L90.000,16.000 L86.036,10.801 ZM64.395,10.058 L69.496,10.058 L69.496,5.900 L64.395,5.900 L64.395,4.373 L69.981,4.373 L69.981,0.000 L57.727,0.000 L57.727,16.000 L70.171,16.000 L70.171,11.628 L64.395,11.628 L64.395,10.058 ZM47.113,7.277 C46.847,8.064 46.653,9.788 46.653,9.788 C46.626,9.915 46.464,9.924 46.419,9.788 C46.419,9.788 46.226,8.064 45.960,7.277 L43.543,0.000 L36.634,0.000 L43.690,16.000 L49.296,16.000 L56.349,0.000 L49.439,0.000 L47.113,7.277 ZM28.245,10.206 L29.109,6.961 C29.296,6.301 29.423,5.358 29.423,5.358 C29.450,5.213 29.654,5.213 29.688,5.366 C29.729,5.586 29.829,6.267 30.023,6.944 L30.904,10.206 L28.245,10.206 ZM25.853,0.000 L19.521,16.000 L26.532,16.000 L27.059,14.006 L32.065,14.006 L32.668,16.000 L39.675,16.000 L33.175,0.000 L25.853,0.000 ZM11.935,4.796 C11.935,6.934 12.225,7.533 12.492,8.870 C12.492,8.870 12.470,9.103 12.298,8.870 C12.126,8.638 6.355,0.000 6.355,0.000 L0.000,0.000 L0.000,16.000 L6.329,16.000 L6.329,10.801 C6.329,8.887 6.136,8.701 5.919,7.598 C5.919,7.598 5.943,7.370 6.112,7.598 C6.281,7.823 11.935,16.000 11.935,16.000 L18.266,16.000 L18.266,0.000 L11.935,0.000 L11.935,4.796 Z"/>
</svg>