<svg width="42" height="42" viewBox="0 0 42 42" fill="none" xmlns="http://www.w3.org/2000/svg">
<g clip-path="url(#clip0)">
<path d="M22.435 16.8315C9.76149 23.3625 18.1912 40.8852 34.0025 36.3107C35.476 36.883 36.7885 37.8105 38.2165 38.5C37.8472 37.2575 37.4535 36.029 37.0335 34.8057C41.9335 31.3145 43.008 26.3742 41.1967 22.3142C38.3687 15.8795 29.3387 13.244 22.435 16.8315ZM26.8625 23.233C26.4967 24.3792 24.8395 24.7222 24.0362 23.8507C23.1507 23.044 23.4955 21.3587 24.6575 20.9982C25.942 20.4557 27.426 21.945 26.8625 23.233ZM35.2275 23.3975H35.252C34.8022 24.4247 33.2552 24.6662 32.4957 23.87C32.13 23.534 32.0232 23.0282 31.8937 22.5872C32.0757 21.7822 32.6287 20.9475 33.5212 20.909C34.755 20.7375 35.8592 22.267 35.2275 23.3975Z" fill="black"/>
<path d="M30.4745 14.434C29.7115 10.682 27.0865 7.51276 23.7825 5.68401H23.8297V5.68226C12.1047 -0.943243 -2.49376 8.29851 0.327244 19.1975C1.08499 22.4315 3.32149 25.1423 6.03574 26.9518C5.51074 28.4445 5.01199 29.9373 4.53949 31.4405C6.24574 30.5445 7.95199 29.6083 9.65999 28.6983C11.7075 29.358 13.8862 29.68 16.065 29.6083C13.3735 21.8873 20.2772 13.7078 30.4745 14.434ZM19.8397 9.95225C21.2135 9.39925 22.8375 10.556 22.729 12.0348L22.7325 12.0558C22.7465 13.7445 20.5012 14.798 19.2412 13.6535C17.934 12.712 18.305 10.4248 19.8397 9.95225ZM12.131 12.4845C11.83 13.951 9.87174 14.6598 8.72549 13.6745C7.39724 12.7348 7.76999 10.4055 9.32924 9.93126C10.857 9.33976 12.593 10.8973 12.131 12.4845Z" fill="black"/>
</g>
<defs>
<clipPath id="clip0">
<rect width="42" height="42" fill="white"/>
</clipPath>
</defs>
</svg>