<svg 
 xmlns="http://www.w3.org/2000/svg"
 xmlns:xlink="http://www.w3.org/1999/xlink"
 width="31px" height="26px">
<path fill-rule="evenodd"  fill="rgb(0, 0, 0)"
 d="M22.801,13.103 C22.373,12.977 22.080,12.890 22.304,12.335 C22.788,11.131 22.839,10.092 22.313,9.350 C21.328,7.960 18.632,8.034 15.542,9.313 C15.542,9.312 14.572,9.732 14.820,8.972 C15.295,7.462 15.223,6.198 14.484,5.468 C12.808,3.811 8.350,5.531 4.525,9.306 C1.662,12.135 0.001,15.133 0.001,17.725 C0.001,22.683 6.437,26.000 12.734,26.000 C20.988,26.000 26.480,20.960 26.480,17.199 C26.480,14.926 24.542,13.636 22.801,13.103 ZM12.751,23.777 C7.726,24.260 3.389,22.045 3.063,18.825 C2.736,15.606 6.546,12.604 11.570,12.119 C16.596,11.633 20.933,13.850 21.259,17.069 C21.584,20.289 17.777,23.292 12.751,23.777 ZM30.998,9.066 C30.995,4.059 26.812,0.000 21.652,0.000 C21.049,0.000 20.561,0.474 20.561,1.058 C20.561,1.643 21.049,2.116 21.652,2.116 C25.609,2.116 28.817,5.230 28.817,9.070 C28.817,9.654 29.305,10.128 29.907,10.128 C30.510,10.128 30.998,9.654 30.998,9.070 C30.998,9.070 30.998,9.067 30.998,9.066 ZM26.665,8.910 C26.167,6.550 24.249,4.689 21.816,4.205 C21.227,4.087 20.650,4.456 20.530,5.028 C20.408,5.601 20.788,6.160 21.377,6.278 C22.959,6.592 24.206,7.801 24.529,9.336 C24.651,9.909 25.227,10.277 25.817,10.160 C26.406,10.041 26.786,9.482 26.665,8.910 ZM10.174,15.272 C8.150,15.667 6.784,17.314 7.123,18.951 C7.461,20.588 9.377,21.595 11.402,21.199 C13.425,20.805 14.792,19.158 14.452,17.520 C14.114,15.884 12.197,14.877 10.174,15.272 Z"/>
</svg>