<svg 
 xmlns="http://www.w3.org/2000/svg"
 xmlns:xlink="http://www.w3.org/1999/xlink"
 width="15px" height="24px">
<path fill-rule="evenodd"  fill="rgb(0, 0, 0)"
 d="M11.321,20.094 C10.613,20.094 9.995,19.932 9.466,19.609 C9.054,19.370 8.779,19.057 8.642,18.672 C8.494,18.297 8.420,17.401 8.420,15.984 L8.420,9.828 L14.191,9.828 L14.191,6.062 L8.420,6.062 L8.420,0.000 L4.947,0.000 C4.788,1.229 4.503,2.250 4.091,3.063 C3.679,3.865 3.134,4.552 2.458,5.125 C1.781,5.688 0.962,6.125 -0.000,6.438 L-0.000,9.828 L2.695,9.828 L2.695,18.250 C2.695,19.364 2.812,20.203 3.044,20.766 C3.266,21.328 3.684,21.875 4.297,22.406 C4.931,22.927 5.661,23.318 6.485,23.578 C7.341,23.859 8.324,24.000 9.434,24.000 C10.449,24.000 11.363,23.901 12.177,23.703 C12.981,23.526 13.922,23.187 15.000,22.687 L15.000,18.906 C13.784,19.698 12.558,20.094 11.321,20.094 Z"/>
</svg>