<svg width="320" height="142" viewBox="0 0 320 142" fill="none" xmlns="http://www.w3.org/2000/svg">
<g clip-path="url(#clip0)">
<path d="M56.4747 97.0603C57.9253 95.505 59.632 93.7507 60.6507 92.9252C60.3627 92.9014 59.912 92.8456 59.4213 92.7713C58.3547 93.7348 57.0053 95.1414 55.792 96.4313C54.2533 98.0848 52.9867 99.5286 52.9867 99.5286C52.9867 99.5286 52.96 99.5658 52.9413 99.5844L49.096 100.646C47.416 101.108 45.896 100.994 45.896 102.09C45.896 102.09 44.1547 103.019 44.5627 104.404C44.5627 104.404 48.0533 101.628 51.04 101.158C51.04 101.158 49.216 102.339 49.3787 103.94C49.3787 103.94 51.84 100.277 54.712 102.499C54.712 102.499 53.4293 100.768 53.9653 99.8153C54.4373 99.2898 55.3867 98.2255 56.4747 97.0603ZM50.9333 53.8012C50.7851 53.8641 50.6251 53.8949 50.464 53.8914C50.2069 53.89 49.9561 53.8122 49.7437 53.668C49.5313 53.5238 49.3671 53.3197 49.272 53.0819C49.2488 53.0376 49.2317 52.9902 49.2213 52.9413L48.8427 53.066C48.9757 53.4971 49.2747 53.8583 49.6744 54.0707C50.0742 54.283 50.5421 54.3293 50.976 54.1993C51.1867 54.128 51.3789 54.0111 51.5387 53.8569C51.7827 53.6215 51.9533 53.321 52.0299 52.9914C52.1066 52.6618 52.086 52.3173 51.9707 51.9991L51.1227 52.2857C51.18 52.4164 51.2108 52.5571 51.2133 52.6997C51.2149 52.8215 51.1894 52.942 51.1387 53.0527L51.536 53.2943C51.4658 53.403 51.3805 53.5012 51.2827 53.5862C51.1818 53.6804 51.063 53.7535 50.9333 53.8012V53.8012ZM86.1333 50.9958L68.9653 55.1654V55.1468V55.1654L102.499 40.7165L74.864 44.0872L89.656 33.3275L73.8053 39.4903L76.2053 34.7129L64.8667 42.8451L64.7707 42.6726L80.8453 8.06314L54.712 38.8746L54.5493 22.0768L44.9493 44.5304L44.4507 37.9111L39.7253 55.1362C40.1826 54.8189 40.6863 54.5736 41.2187 54.409V54.409L41.4267 54.3559C41.4267 54.3559 41.4427 54.3559 41.4533 54.3559C41.5227 54.34 41.592 54.3241 41.6613 54.3134C41.6613 54.3134 41.68 54.3134 41.6933 54.3134C41.7627 54.3134 41.832 54.2922 41.9093 54.2869C41.984 54.2869 42.056 54.2869 42.1253 54.271H42.1707C42.2452 54.2657 42.3201 54.2657 42.3947 54.271H42.4213C42.4875 54.2699 42.5536 54.2752 42.6187 54.2869C42.631 54.2896 42.6437 54.2896 42.656 54.2869C42.727 54.2958 42.7973 54.3091 42.8667 54.3267C42.8817 54.3243 42.897 54.3243 42.912 54.3267C42.9867 54.3453 43.0613 54.3639 43.1387 54.3904C44.1054 54.7383 45.164 54.7383 46.1307 54.3904C46.1307 54.3904 47.6533 55.3645 47.6533 56.1819C47.6533 56.1819 45.6507 56.2987 45.6507 55.4149C45.6507 55.4149 43.088 54.5098 39.5013 55.8316L47.064 59.0696C47.064 59.0351 46.6587 57.6337 47.096 57.1454C47.2347 56.9782 47.4773 56.9171 47.856 57.0472C47.9947 57.0949 48.096 57.0843 48.1573 57.0233C48.744 56.4208 45.8933 51.1843 45.8933 51.1843C45.8933 51.1843 43.3333 50.9374 41.12 53.2438C40.9707 53.3978 40.8187 53.5623 40.6773 53.7402C41.2394 52.7859 41.9608 51.9341 42.8107 51.2214C43.5949 50.5583 44.5108 50.0672 45.4987 49.7802C45.792 49.0796 45.4187 49.5361 46.032 49.1671C46.3147 47.3093 47.3653 42.5584 50.992 38.4871C51.2347 38.2216 51.4853 37.943 51.752 37.6908C51.752 37.6908 50.824 39.4293 50.824 40.6395C51.4825 39.693 52.2222 38.805 53.0347 37.9854C53.0218 38.0017 53.0111 38.0196 53.0027 38.0385C52.7653 38.5401 51.0373 42.2161 51.2187 43.2883C51.2211 43.297 51.2211 43.3062 51.2187 43.3149L54.712 40.1299H54.6987C54.5973 40.268 51.4187 44.549 51.104 46.0167L56.3947 42.2532C56.376 42.2851 55.728 43.1848 55.4533 43.6785C55.3499 43.8349 55.2749 44.0083 55.232 44.1907V44.2173L58.088 42.9964C58.088 42.9964 57.9627 43.1423 57.7653 43.36L56.6987 44.4216L56.432 44.687L54.5067 46.6245L54.4693 46.6696L53.0027 48.1533L52.064 49.1061C52.064 49.1061 51.296 49.9023 51.2027 50.3164C51.1093 50.7304 51.544 50.9746 51.544 50.9746C51.9366 51.1912 52.2496 51.5269 52.4373 51.9327C52.5449 52.1844 52.5993 52.4554 52.5973 52.7289C52.5983 52.996 52.5444 53.2604 52.4389 53.506C52.3335 53.7515 52.1786 53.973 51.984 54.1568C51.6044 54.5245 51.1009 54.7385 50.5716 54.7572C50.0422 54.7758 49.5248 54.5978 49.12 54.2577C49.184 54.3426 50.2267 55.6485 52.1387 54.6346L54.4987 52.92L54.6027 52.8404L57.0453 51.0595C57.6676 51.8073 58.2084 52.6187 58.6587 53.4801V53.4801C57.2053 54.8522 54.7333 57.2329 52.2587 59.8499C50.7867 61.3972 49.3253 63.0348 48.0613 64.5821L48.944 60.4577L49.016 60.1179C49.016 60.1179 49 60.1179 48.9947 60.1179C48.9893 60.1179 48.9813 60.1179 48.9813 60.1179C48.9813 60.1179 48.9627 60.118 48.9573 60.1365V60.1498L48.9227 60.1657C48.9227 60.1657 48.9227 60.1843 48.9013 60.187C48.8904 60.195 48.8788 60.2021 48.8667 60.2082C48.8596 60.2196 48.8494 60.2288 48.8373 60.2347C48.8278 60.247 48.8148 60.2562 48.8 60.2613C48.7883 60.2735 48.7758 60.2851 48.7627 60.2958C48.7493 60.2958 48.7333 60.3223 48.72 60.325C48.7103 60.3414 48.6965 60.3551 48.68 60.3648C48.6613 60.3648 48.648 60.394 48.6293 60.4046C48.6147 60.4165 48.6013 60.4298 48.5893 60.4444C48.5684 60.4585 48.5495 60.4755 48.5333 60.4948C48.5093 60.4948 48.5013 60.5214 48.4773 60.5293C48.4604 60.5529 48.4397 60.5735 48.416 60.5904C48.416 60.6036 48.3787 60.6222 48.3653 60.6382C48.3403 60.6582 48.3171 60.6804 48.296 60.7045C48.2801 60.7216 48.2622 60.7367 48.2427 60.7496C48.2208 60.7798 48.1937 60.8058 48.1627 60.8266L48.1173 60.8717C48.1025 60.8888 48.0854 60.904 48.0667 60.9168C48.0667 60.9168 48.0667 60.9168 48.0667 60.9168L47.984 61.0018C47.9625 61.0201 47.9428 61.0406 47.9253 61.0628C47.8959 61.0873 47.8682 61.1139 47.8427 61.1424C47.8187 61.1637 47.7947 61.1902 47.7733 61.2114C47.752 61.2327 47.7307 61.2592 47.7173 61.2778L47.6853 61.307C47.6853 61.307 47.6853 61.307 47.6667 61.3282L47.616 61.3813L47.5467 61.4556C47.5467 61.4556 47.5467 61.4742 47.528 61.4769L47.5013 61.5007C47.4882 61.5208 47.472 61.5387 47.4533 61.5538C47.4282 61.5917 47.3977 61.6256 47.3627 61.6547C47.3387 61.6892 47.312 61.7157 47.288 61.7476C47.264 61.7794 47.224 61.8192 47.1973 61.8511L47.1173 61.9493C47.08 61.9864 47.0533 62.0262 47.016 62.0661C46.9787 62.1059 46.9653 62.1271 46.936 62.1643C46.9067 62.2014 46.8747 62.2439 46.8373 62.2917C46.8 62.3394 46.7867 62.3554 46.7573 62.3872C46.728 62.4191 46.6853 62.4828 46.648 62.5305C46.6221 62.5602 46.5989 62.5922 46.5787 62.6261L46.44 62.8012C46.4267 62.8251 46.4027 62.8517 46.3893 62.8756C46.3253 62.9631 46.256 63.0534 46.1947 63.141C46.1333 63.2312 46.0693 63.3188 46.0107 63.4064C45.9973 63.4329 45.976 63.4621 45.9573 63.4913C45.9147 63.5603 45.864 63.6293 45.8187 63.701C45.7733 63.7726 45.776 63.77 45.7493 63.8045C45.7227 63.839 45.664 63.9345 45.6187 64.0035L45.552 64.1203C45.5147 64.1893 45.4667 64.261 45.424 64.33C45.3813 64.399 45.376 64.4123 45.3547 64.4547C45.3333 64.4972 45.2747 64.5954 45.2293 64.6644C45.184 64.7334 45.1787 64.752 45.1547 64.7945C45.1307 64.8369 45.0693 64.9431 45.0293 65.0174C44.9893 65.0917 44.984 65.105 44.9627 65.1528C44.768 65.5084 44.5787 65.8773 44.384 66.2755L43.4107 66.4374C43.6053 65.9384 43.7973 65.4845 44.008 65.0572L42.408 67.2787L44.008 67.1248C42.6507 70.2274 41.656 74.2908 41.656 80.0715L42.9467 79.2593C44.0853 85.7141 49.4293 88.5486 49.4293 88.5486V88.5088C52.5828 90.5486 56.1525 91.8649 59.88 92.3626V92.3626C60.4133 92.4316 60.872 92.4714 60.9707 92.482C61.0377 92.493 61.1054 92.5001 61.1733 92.5032C63.2409 92.6829 65.3225 92.6223 67.376 92.3228C67.376 92.3971 67.376 92.4741 67.376 92.551C67.376 93.8276 68.0907 94.8813 69 94.9689C67.1333 98.1299 65.6213 102.331 65.616 102.35C65.5422 102.594 65.4157 102.818 65.2453 103.008C64.9052 103.084 64.5695 103.179 64.24 103.292V103.292C64.0693 103.125 62.5947 102.852 61.0933 103.412C61.0919 103.417 61.0919 103.422 61.0933 103.428C60.1093 103.864 59.3122 104.633 58.8427 105.599C59.4533 105.11 60.592 104.311 61.5093 104.42C60.4107 105.044 58.5147 106.233 58.296 107.945C58.296 107.945 64.8853 103.343 68.1333 104.192C68.1333 104.192 67.6613 104.723 68.7787 106.716L69.288 104.858C69.8747 103.064 67.6187 102.798 66.6693 102.761C66.6705 102.754 66.6705 102.747 66.6693 102.74C66.6693 102.74 66.7733 102.451 66.9573 101.976C67.5173 100.54 68.824 97.3629 70.2453 95.0936C70.2678 95.0471 70.2874 94.9993 70.304 94.9503L70.0373 94.5841C70.1433 94.4715 70.2413 94.3518 70.3307 94.2258C70.6187 93.7881 70.7768 93.2785 70.7867 92.7554C70.7654 92.0583 70.5935 91.3739 70.2827 90.7489L71.128 90.3587C71.1742 90.4649 71.2196 90.5658 71.264 90.6613L71.2987 90.7595C71.3253 90.8285 71.352 90.8975 71.376 90.9639C71.4 91.0302 71.4027 91.0329 71.4133 91.0674C71.4373 91.1443 71.4587 91.2134 71.4853 91.2797C71.4853 91.3009 71.5013 91.3301 71.5067 91.354L76.328 89.9049L75.2613 89.029L75.2133 88.9813L75.1893 88.9627L56.9707 72.4303C62.0373 74.888 67.9547 77.7385 77.9867 82.3699C87.8693 86.9058 94.128 89.536 97.3573 90.863C97.382 90.8784 97.4078 90.8917 97.4347 90.9028V90.9028L98.6453 91.3912L100.019 91.922C100.075 91.8902 100.139 91.8742 100.195 91.845L63.336 66.6709L86.1333 50.9958ZM60.616 58.7564L55.12 62.9207L59.0667 54.2816C59.7332 55.7207 60.254 57.2224 60.6213 58.7644L60.616 58.7564ZM80.2427 88.546L80.3813 89.2042L86.8053 92.9783L88.4293 93.9179L87.5413 91.6407C92.84 93.196 97.1573 93.2836 100.027 91.9379C95.0107 93.4083 82.624 89.252 80.2293 88.546H80.2427Z" fill="#DB1F26"/>
<path d="M45.6401 55.4123C45.6401 56.2961 47.6427 56.1793 47.6427 56.1793C47.6427 55.3671 46.1227 54.3904 46.1227 54.3904C45.1527 54.7353 44.0927 54.7353 43.1227 54.3904C42.5002 54.1903 41.8292 54.1968 41.2107 54.409C40.603 54.8414 40.0281 55.3178 39.4907 55.8343C43.0774 54.5072 45.6401 55.4123 45.6401 55.4123ZM59.0534 54.2816L55.1067 62.9207L60.6027 58.7564C60.2364 57.2175 59.7174 55.7185 59.0534 54.2816ZM100.037 91.93C100.037 91.93 87.6907 87.3198 56.9707 72.4303L75.2801 89.037C76.9201 88.3576 78.0721 87.8772 80.3467 89.2042L80.2107 88.546C82.6187 89.252 95.0534 93.4243 100.037 91.93ZM70.3094 90.7702C70.6203 91.3952 70.7922 92.0796 70.8134 92.7767C70.8035 93.2997 70.6454 93.8094 70.3574 94.247C70.268 94.373 70.17 94.4927 70.0641 94.6053L70.6107 95.3538C70.6694 95.3166 71.7414 94.5098 71.7414 92.7767C71.7209 91.9474 71.5198 91.1324 71.1521 90.388L70.3094 90.7702ZM59.2881 92.7634C60.1601 92.9014 60.9547 92.9731 60.9547 92.9731L60.9947 92.5139C60.9947 92.5139 60.2187 92.4449 59.3654 92.3069L59.2881 92.7634ZM58.6667 53.496C58.2164 52.6347 57.6756 51.8233 57.0534 51.0755L52.1467 54.6558C50.1654 55.6989 49.1201 54.271 49.1201 54.271C49.5051 54.5977 49.9954 54.7757 50.5014 54.7726C51.0501 54.7797 51.5793 54.5705 51.9735 54.1906C52.3677 53.8107 52.5949 53.2909 52.6054 52.7449C52.6086 52.471 52.5531 52.1996 52.4427 51.9487C52.2574 51.5406 51.9439 51.2034 51.5494 50.9879V50.9879C51.5494 50.9879 51.1174 50.7357 51.2081 50.3297C51.2987 49.9236 52.0694 49.1194 52.0694 49.1194L54.4694 46.6803L54.5067 46.6352L56.6934 44.4216L57.7601 43.36C57.9574 43.1424 58.0774 43.0017 58.0774 43.0017L55.2241 44.212C55.2241 44.212 55.1707 44.1828 55.4454 43.6812C55.7201 43.1795 56.3921 42.2506 56.3921 42.2506L51.0961 46.0141C51.4027 44.5358 54.7094 40.114 54.7094 40.114L51.2161 43.299C50.9814 42.1869 53.0241 37.9722 53.0241 37.9722C52.2079 38.7884 51.468 39.6768 50.8134 40.6263C50.8134 39.4081 51.7387 37.6696 51.7387 37.6696C47.4961 41.8949 46.3174 47.1846 46.0214 49.1512C45.4054 49.5334 45.7841 49.069 45.4881 49.7723C42.6401 50.5685 41.0214 53.1032 40.6534 53.7322C42.9654 50.8923 45.8747 51.1763 45.8747 51.1763C45.8747 51.1763 49.3414 57.5674 47.8374 57.0525C46.3334 56.5376 47.0374 59.0696 47.0374 59.0696L44.2107 57.8593C44.6801 58.783 45.6001 60.9593 45.0721 63.2233C44.394 64.2575 43.8307 65.3618 43.3921 66.517L44.3654 66.3551C44.5547 65.949 44.7441 65.5801 44.9334 65.2271C44.9601 65.182 44.9894 65.1369 45.0107 65.0918C45.0321 65.0466 45.0907 64.9458 45.1361 64.8715L45.2107 64.7361C45.2507 64.6671 45.2854 64.6008 45.3307 64.5317L45.4054 64.4017C45.4481 64.3327 45.4854 64.261 45.5334 64.1973C45.5528 64.1578 45.5751 64.1196 45.6001 64.0832L45.7307 63.8788C45.7495 63.8408 45.7728 63.8052 45.8001 63.7727C45.8426 63.7021 45.8889 63.6339 45.9387 63.5683C45.9537 63.5367 45.9716 63.5065 45.9921 63.4781C46.0507 63.3878 46.1147 63.3002 46.1761 63.2127C46.1761 63.2127 46.1761 63.2127 46.1761 63.1994C46.2374 63.1065 46.3014 63.0216 46.3654 62.934C46.3841 62.9127 46.4027 62.8835 46.4214 62.8597L46.5547 62.6792C46.5774 62.6473 46.6023 62.6172 46.6294 62.5889L46.7361 62.4403C46.765 62.4111 46.7909 62.3791 46.8134 62.3448L46.9174 62.2174C46.9461 62.1873 46.9728 62.1554 46.9974 62.1218C47.0347 62.0794 47.0614 62.0422 47.0961 62.005C47.1307 61.9679 47.1467 61.9413 47.1734 61.9122C47.2001 61.883 47.2374 61.8378 47.2694 61.8033L47.3441 61.7157C47.3744 61.6828 47.4029 61.6483 47.4294 61.6122C47.4587 61.5883 47.4827 61.5538 47.5094 61.53L47.5974 61.4397C47.6214 61.4052 47.6427 61.3893 47.6667 61.3601C47.698 61.332 47.7274 61.3019 47.7547 61.2699L47.8241 61.1955C47.8483 61.1658 47.876 61.139 47.9067 61.1159L47.9654 61.0549L48.0481 60.9699C48.0721 60.954 48.0854 60.9328 48.1041 60.9195L48.2294 60.7948C48.2489 60.7819 48.2668 60.7667 48.2827 60.7497C48.3038 60.7256 48.327 60.7034 48.3521 60.6833C48.3654 60.6674 48.3921 60.6488 48.4027 60.6355C48.4264 60.6186 48.4471 60.598 48.4641 60.5745C48.4881 60.5745 48.4961 60.5506 48.5201 60.54C48.5362 60.5206 48.5551 60.5036 48.5761 60.4896C48.588 60.475 48.6014 60.4616 48.6161 60.4497C48.6347 60.4497 48.6481 60.4205 48.6667 60.4099C48.6833 60.4003 48.697 60.3866 48.7067 60.3701C48.7067 60.3701 48.7361 60.3489 48.7494 60.3409C48.7625 60.3302 48.775 60.3187 48.7867 60.3064C48.8015 60.3014 48.8145 60.2922 48.8241 60.2799C48.8361 60.2739 48.8463 60.2647 48.8534 60.2533C48.8655 60.2472 48.8771 60.2401 48.8881 60.2321C48.8881 60.2321 48.9041 60.2162 48.9094 60.2109L48.9441 60.1949V60.1817C48.9441 60.1817 48.9601 60.1817 48.9681 60.1631C48.9761 60.1445 48.9814 60.1631 48.9814 60.1631C48.9814 60.1631 48.9814 60.1631 49.0027 60.1631L48.9307 60.5028L48.0481 64.6273C51.4107 60.463 56.3441 55.683 58.6667 53.496ZM48.8507 53.066L49.2347 52.9413C49.2451 52.9903 49.2621 53.0376 49.2854 53.082C49.3805 53.3197 49.5447 53.5238 49.7571 53.668C49.9695 53.8122 50.2203 53.89 50.4774 53.8915C50.6385 53.8949 50.7985 53.8642 50.9467 53.8012C51.1923 53.7017 51.3997 53.5269 51.5387 53.3023L51.1414 53.066C51.1924 52.9535 51.2179 52.8312 51.2161 52.7077C51.2135 52.5651 51.1827 52.4244 51.1254 52.2937L51.9921 51.9991C52.0829 52.209 52.1292 52.4354 52.1278 52.6639C52.1265 52.8925 52.0777 53.1183 51.9844 53.3272C51.8911 53.5361 51.7554 53.7234 51.5858 53.8776C51.4162 54.0317 51.2164 54.1492 50.9989 54.2226C50.7814 54.2961 50.551 54.324 50.3222 54.3046C50.0934 54.2851 49.8711 54.2187 49.6693 54.1096C49.4675 54.0005 49.2906 53.8509 49.1498 53.6704C49.0089 53.4899 48.9071 53.2823 48.8507 53.0607V53.066Z" fill="#010101"/>
<path d="M108.848 76.8202C108.848 65.1847 117.776 57.8885 128.741 57.8885C136.955 57.8885 141.912 62.2227 144.448 66.7771L136.512 70.8936C135.133 68.4784 132.325 66.2277 128.741 66.2277C122.736 66.2277 118.493 70.7821 118.493 76.8202C118.493 82.8025 122.736 87.4101 128.741 87.4101C131.443 87.4101 134.197 86.3139 135.52 85.2151V82.362H127.253V74.0759H145V88.6177C141.085 92.9545 135.685 95.7519 128.733 95.7519C117.776 95.7519 108.848 88.4531 108.848 76.8202Z" fill="white"/>
<path d="M158.829 95.0937V58.491H185.763V66.7187H168.296V72.4303H185.379V80.658H168.309V86.8607H185.776V95.0884L158.829 95.0937Z" fill="white"/>
<path d="M224.517 95.0937L222.699 89.8253H208.205L206.4 95.0937H195.653L209.485 58.491H221.445L235.275 95.0937H224.517ZM215.48 67.8202L210.795 81.5949H220.109L215.48 67.8202Z" fill="white"/>
<path d="M266.728 95.0937L260.555 82.8078H255.707V95.099H246.227V58.491H264.627C272.781 58.491 277.411 63.8682 277.411 70.6733C277.411 77.0431 273.552 80.443 270.08 81.648L277.576 95.0937H266.728ZM267.773 70.6176C267.773 68.0935 265.736 66.7214 263.2 66.7214H255.707V74.5801H263.2C265.736 74.5801 267.773 73.1974 267.773 70.6176V70.6176Z" fill="white"/>
<path d="M112.944 45.2046C112.944 42.3806 115.163 40.4723 118.011 40.4723C118.779 40.4451 119.541 40.6196 120.22 40.9783C120.9 41.337 121.472 41.8673 121.88 42.516L120.445 43.2299C120.185 42.8226 119.825 42.4875 119.399 42.2555C118.973 42.0235 118.496 41.9022 118.011 41.9029C117.13 41.9029 116.286 42.251 115.663 42.8707C115.04 43.4904 114.691 44.3308 114.691 45.2072C114.691 46.0836 115.04 46.9241 115.663 47.5437C116.286 48.1634 117.13 48.5116 118.011 48.5116C118.495 48.5076 118.971 48.3844 119.396 48.1528C119.821 47.9213 120.181 47.5886 120.445 47.1845L121.896 47.8719C121.483 48.5217 120.908 49.054 120.228 49.4168C119.547 49.7796 118.783 49.9606 118.011 49.9421C115.163 49.9368 112.944 48.0153 112.944 45.2046Z" fill="white"/>
<path d="M126.805 49.7723V40.6236H130.4C133.429 40.6236 135.467 42.516 135.467 45.1913C135.467 47.8667 133.437 49.7723 130.421 49.7723H126.805ZM133.723 45.1913C133.723 43.4343 132.563 42.0356 130.416 42.0356H128.504V48.3603H130.4C132.504 48.3603 133.723 46.9324 133.723 45.1913Z" fill="white"/>
<path d="M147.949 49.7723V40.6236H152.216C154.245 40.6236 155.36 41.9268 155.36 43.4901C155.36 45.0533 154.229 46.3432 152.216 46.3432H149.648V49.7723H147.949ZM153.619 43.4901C153.619 42.6115 152.936 42.0356 151.979 42.0356H149.645V44.9312H151.979C152.936 44.9312 153.619 44.3553 153.619 43.4901V43.4901Z" fill="white"/>
<path d="M165.867 49.7723L163.733 46.3565H162.037V49.7723H160.339V40.6236H164.587C166.501 40.6236 167.763 41.7888 167.763 43.4901C167.787 44.1451 167.563 44.7853 167.135 45.2838C166.707 45.7822 166.107 46.1026 165.453 46.1813L167.829 49.775L165.867 49.7723ZM166.027 43.4768C166.027 42.5983 165.328 42.0356 164.373 42.0356H162.04V44.9551H164.373C165.333 44.9445 166.019 44.3686 166.019 43.4768H166.027Z" fill="white"/>
<path d="M172.587 45.2046C172.587 42.4762 174.632 40.4724 177.533 40.4724C180.435 40.4724 182.477 42.4762 182.477 45.2046C182.477 47.933 180.419 49.9369 177.533 49.9369C174.648 49.9369 172.587 47.933 172.587 45.2046ZM180.736 45.2046C180.736 43.3122 179.475 41.9003 177.536 41.9003C175.597 41.9003 174.336 43.3122 174.336 45.2046C174.336 47.097 175.581 48.509 177.536 48.509C179.491 48.509 180.736 47.0837 180.736 45.2046Z" fill="white"/>
<path d="M186.451 48.9628L187.251 47.7419C187.455 47.9801 187.708 48.1719 187.994 48.3042C188.279 48.4366 188.589 48.5064 188.904 48.5089C189.128 48.5225 189.352 48.4892 189.562 48.411C189.772 48.3329 189.963 48.2117 190.123 48.0553C190.283 47.8989 190.408 47.7108 190.49 47.5031C190.572 47.2955 190.61 47.0731 190.6 46.8501V40.6236H192.296V46.8634C192.296 48.9495 190.907 49.9368 189.035 49.9368C188.56 49.9562 188.087 49.8799 187.643 49.7125C187.199 49.5451 186.793 49.2901 186.451 48.9628V48.9628Z" fill="white"/>
<path d="M197.909 49.7723V40.6236H204.533V42.0356H199.605V44.3951H204.432V45.8071H199.605V48.3603H204.533V49.7723H197.909Z" fill="white"/>
<path d="M215.613 49.7723L212.381 45.9159L211.525 46.8608V49.7803H209.827V40.6236H211.525V44.971L215.309 40.6236H217.411L213.483 44.9312L217.715 49.7723H215.613Z" fill="white"/>
<path d="M224.693 49.7723V42.0356H221.76V40.6236H229.315V42.0356H226.4V49.7723H224.693Z" fill="white"/>
<path d="M247.125 49.7723L244.992 46.3565H243.296V49.7723H241.6V40.6236H245.851C247.763 40.6236 249.024 41.7888 249.024 43.4901C249.048 44.1443 248.825 44.7838 248.398 45.2821C247.972 45.7805 247.373 46.1013 246.72 46.1813L249.096 49.775L247.125 49.7723ZM247.285 43.4768C247.285 42.5983 246.589 42.0356 245.632 42.0356H243.299V44.9551H245.632C246.589 44.9445 247.285 44.3686 247.285 43.4768Z" fill="white"/>
<path d="M254.275 49.7723V40.6236H260.901V42.0356H255.973V44.3951H260.8V45.8071H255.973V48.3603H260.901V49.7723H254.275Z" fill="white"/>
<path d="M266.197 49.7723V40.6236H269.792C272.821 40.6236 274.859 42.516 274.859 45.1913C274.859 47.8667 272.827 49.7723 269.811 49.7723H266.197ZM273.112 45.1913C273.112 43.4343 271.952 42.0356 269.805 42.0356H267.893V48.3603H269.792C271.893 48.3603 273.112 46.9324 273.112 45.1913Z" fill="white"/>
<path d="M295.939 21.9521H290.971L290.973 21.9653H82.0613L80.0826 26.2809H292.144L293.565 27.6955L293.595 27.7035V113.51L293.565 113.518L292.131 114.946H28.0666L26.632 113.518L26.6026 113.51V27.7035L26.632 27.6955L28.0533 26.2809H44.8986L46.872 21.9653H29.224L29.2266 21.9521H24.2586L22.2693 23.9347V23.9479V28.8527V112.364V117.279V117.282L24.2586 119.262H29.2266H290.971H295.939L297.928 117.282V117.279V112.364V28.8527V23.9479V23.9347L295.939 21.9521Z" fill="white"/>
</g>
<defs>
<clipPath id="clip0">
<rect width="320" height="141.463" fill="white"/>
</clipPath>
</defs>
</svg>
