<svg width="120" height="32" viewBox="0 0 120 32" fill="none" xmlns="http://www.w3.org/2000/svg">
<g clip-path="url(#clip0_2912_129496)">
<path d="M92.3263 29.037C93.9984 29.1622 95.6622 29.3041 97.3259 29.4544V0H92.3263V29.037ZM11.9082 18.1116L5.39458 0H0.644531V32C2.3083 31.7663 3.97206 31.5326 5.64415 31.3156V13.9134L11.434 30.5978C13.2559 30.3891 15.0777 30.1888 16.9078 29.9969V0H11.9082V18.1116ZM21.7161 29.5378C26.3247 29.1205 30.95 28.77 35.6002 28.5029V23.5618C32.6304 23.7371 29.6689 23.9374 26.7157 24.1711V16.6927C28.654 16.6761 31.2079 16.6176 33.4706 16.6427V11.7016C31.6654 11.6933 28.7622 11.7267 26.7157 11.7517V4.99113H35.6002V0H21.7161V29.5378ZM38.803 4.99113H44.0355V28.1022C45.6993 28.0355 47.3631 27.9854 49.0351 27.9437V4.99113H54.2677V0H38.803V4.99113ZM57.4704 27.8018H62.4701V16.3923H69.2499V11.4512H62.4701V4.99113H71.4294V0H57.4704V27.8018ZM119.354 0H113.864L110.245 8.42149L106.992 0H101.585L107.4 15.0402L101.053 29.7966C102.808 29.9718 104.555 30.1555 106.31 30.3474L110.004 21.7673L113.656 31.2238C115.561 31.4658 117.457 31.7246 119.354 32H119.363L112.849 15.1487L119.354 0ZM79.6318 0H74.6322V28.0522C79.1743 28.2107 83.6997 28.4361 88.2085 28.7366V23.7955C85.3551 23.6035 82.5018 23.445 79.6318 23.3114V0V0Z" fill="#E50914"/>
</g>
<defs>
<clipPath id="clip0_2912_129496">
<rect width="118.71" height="32" fill="white" transform="translate(0.644531)"/>
</clipPath>
</defs>
</svg>
