<svg width="365" height="147" viewBox="0 0 365 147" fill="none" xmlns="http://www.w3.org/2000/svg">
<g clip-path="url(#clip0_2956_128515)">
<g clip-path="url(#clip1_2956_128515)">
<path d="M44.9078 117.369C46.8319 115.312 49.0956 112.993 50.4468 111.901C50.0648 111.87 49.467 111.796 48.8162 111.698C47.4014 112.972 45.6116 114.832 44.0023 116.537C41.9614 118.723 40.2813 120.633 40.2813 120.633C40.2813 120.633 40.246 120.682 40.2212 120.706L35.1208 122.11C32.8925 122.721 30.8763 122.57 30.8763 124.019C30.8763 124.019 28.5667 125.247 29.1078 127.079C29.1078 127.079 33.7378 123.408 37.6993 122.787C37.6993 122.787 35.28 124.349 35.4957 126.465C35.4957 126.465 38.7604 121.622 42.5698 124.559C42.5698 124.559 40.8685 122.271 41.5794 121.012C42.2055 120.317 43.4647 118.909 44.9078 117.369ZM37.5578 60.1707C37.3612 60.2539 37.149 60.2946 36.9353 60.29C36.5943 60.2881 36.2616 60.1853 35.9799 59.9946C35.6982 59.8039 35.4803 59.534 35.3542 59.2197C35.3234 59.161 35.3008 59.0984 35.287 59.0337L34.7848 59.1986C34.9612 59.7687 35.3578 60.2462 35.888 60.527C36.4182 60.8078 37.0389 60.869 37.6144 60.6971C37.8939 60.6028 38.1488 60.4482 38.3607 60.2444C38.6844 59.9331 38.9107 59.5357 39.0123 59.1C39.114 58.6642 39.0867 58.2086 38.9337 57.7879L37.8089 58.1669C37.885 58.3397 37.9258 58.5258 37.9292 58.7143C37.9313 58.8753 37.8975 59.0346 37.8302 59.1811L38.3572 59.5004C38.264 59.6441 38.1509 59.7741 38.0212 59.8864C37.8874 60.011 37.7299 60.1076 37.5578 60.1707V60.1707ZM84.2467 56.4614L61.4752 61.9745V61.9499V61.9745L105.953 42.8698L69.2992 47.3266L88.9191 33.0999L67.895 41.2485L71.0783 34.9318L56.0388 45.6843L55.9115 45.4562L77.2328 -0.305176L42.5698 40.4344L42.354 18.224L29.6207 47.9127L28.9593 39.1605L22.6916 61.9359C23.2982 61.5163 23.9663 61.192 24.6724 60.9743V60.9743L24.9483 60.9041C24.9483 60.9041 24.9695 60.9041 24.9836 60.9041C25.0756 60.8831 25.1676 60.862 25.2595 60.848C25.2595 60.848 25.2843 60.848 25.302 60.848C25.3939 60.848 25.4859 60.8199 25.5885 60.8129C25.6875 60.8129 25.783 60.8129 25.875 60.7918H25.9351C26.034 60.7848 26.1333 60.7848 26.2322 60.7918H26.2676C26.3553 60.7904 26.443 60.7975 26.5293 60.8129C26.5456 60.8165 26.5625 60.8165 26.5788 60.8129C26.673 60.8247 26.7663 60.8423 26.8583 60.8655C26.8782 60.8623 26.8985 60.8623 26.9184 60.8655C27.0174 60.8901 27.1165 60.9147 27.219 60.9498C28.5013 61.4097 29.9054 61.4097 31.1876 60.9498C31.1876 60.9498 33.2072 62.2377 33.2072 63.3185C33.2072 63.3185 30.5509 63.473 30.5509 62.3044C30.5509 62.3044 27.1518 61.1077 22.3945 62.8553L32.4256 67.1367C32.4256 67.091 31.8879 65.2381 32.468 64.5924C32.6519 64.3713 32.9738 64.2906 33.4761 64.4626C33.66 64.5257 33.7944 64.5117 33.8757 64.431C34.6539 63.6344 30.8728 56.7105 30.8728 56.7105C30.8728 56.7105 27.4773 56.3842 24.5415 59.4337C24.3434 59.6373 24.1418 59.8549 23.9544 60.09C24.6998 58.8283 25.6567 57.702 26.784 56.7597C27.8242 55.8828 29.0391 55.2335 30.3493 54.8541C30.7384 53.9276 30.2432 54.5312 31.0567 54.0434C31.4317 51.5869 32.8253 45.3053 37.6356 39.922C37.9575 39.5711 38.29 39.2026 38.6437 38.8692C38.6437 38.8692 37.4128 41.1678 37.4128 42.768C38.2863 41.5165 39.2673 40.3424 40.345 39.2587C40.3279 39.2803 40.3137 39.3039 40.3025 39.3289C39.9877 39.9922 37.6958 44.8526 37.9363 46.2703C37.9394 46.2818 37.9394 46.2939 37.9363 46.3054L42.5698 42.0943H42.5521C42.4177 42.2767 38.2015 47.9373 37.7842 49.8779L44.8017 44.9017C44.7769 44.9438 43.9174 46.1335 43.5531 46.7862C43.4158 46.9931 43.3165 47.2224 43.2595 47.4635V47.4986L47.0477 45.8843C47.0477 45.8843 46.8814 46.0773 46.6197 46.3651L45.2049 47.7688L44.8512 48.1197L42.2974 50.6815L42.2479 50.7412L40.3025 52.7029L39.0575 53.9627C39.0575 53.9627 38.0388 55.0155 37.915 55.563C37.7912 56.1104 38.3678 56.4333 38.3678 56.4333C38.8886 56.7197 39.3037 57.1635 39.5527 57.7001C39.6953 58.033 39.7675 58.3913 39.7649 58.7529C39.7662 59.106 39.6947 59.4557 39.5548 59.7803C39.4149 60.105 39.2096 60.3979 38.9514 60.6409C38.4479 61.1271 37.7801 61.4101 37.0779 61.4347C36.3758 61.4594 35.6895 61.224 35.1526 60.7743C35.2375 60.8866 36.6205 62.6132 39.1565 61.2726L42.2868 59.0056L42.4248 58.9003L45.6647 56.5456C46.49 57.5344 47.2073 58.6072 47.8046 59.7461V59.7461C45.8769 61.5604 42.5981 64.7082 39.3157 68.1684C37.3633 70.2143 35.425 72.3796 33.7484 74.4255L34.9192 68.972L35.0147 68.5228C35.0147 68.5228 34.9935 68.5228 34.9864 68.5228C34.9793 68.5228 34.9687 68.5228 34.9687 68.5228C34.9687 68.5228 34.9439 68.5228 34.9369 68.5474V68.565L34.8909 68.586C34.8909 68.586 34.8909 68.6106 34.8626 68.6141C34.8481 68.6247 34.8327 68.6341 34.8166 68.6422C34.8072 68.6572 34.7937 68.6694 34.7777 68.6773C34.765 68.6935 34.7478 68.7057 34.7282 68.7124C34.7126 68.7286 34.6961 68.7438 34.6787 68.758C34.661 68.758 34.6397 68.7931 34.6221 68.7966C34.6092 68.8183 34.5909 68.8365 34.569 68.8492C34.5443 68.8492 34.5266 68.8878 34.5018 68.9019C34.4824 68.9176 34.4646 68.9352 34.4488 68.9545C34.4209 68.9731 34.3959 68.9956 34.3745 69.0212C34.3426 69.0212 34.332 69.0563 34.3002 69.0668C34.2777 69.0979 34.2502 69.1252 34.2188 69.1475C34.2188 69.165 34.1693 69.1896 34.1516 69.2107C34.1185 69.2372 34.0877 69.2665 34.0597 69.2984C34.0385 69.321 34.0148 69.341 33.9889 69.3581C33.9599 69.3979 33.924 69.4324 33.8828 69.4598L33.8227 69.5195C33.803 69.5421 33.7804 69.5622 33.7555 69.5791C33.7555 69.5791 33.7555 69.5791 33.7555 69.5791L33.6458 69.6914C33.6173 69.7157 33.5912 69.7428 33.568 69.7722C33.5289 69.8045 33.4923 69.8397 33.4584 69.8774C33.4265 69.9055 33.3947 69.9406 33.3664 69.9687C33.3381 69.9968 33.3098 70.0319 33.2921 70.0564L33.2497 70.095C33.2497 70.095 33.2497 70.095 33.2249 70.1231L33.1577 70.1933L33.0658 70.2915C33.0658 70.2915 33.0658 70.3161 33.041 70.3196L33.0056 70.3512C32.9883 70.3778 32.9668 70.4014 32.942 70.4214C32.9087 70.4714 32.8681 70.5163 32.8217 70.5547C32.7899 70.6004 32.7545 70.6354 32.7227 70.6776C32.6908 70.7197 32.6378 70.7723 32.6024 70.8144L32.4963 70.9443C32.4468 70.9934 32.4114 71.046 32.3619 71.0987C32.3124 71.1513 32.2947 71.1794 32.2558 71.2285C32.2169 71.2777 32.1744 71.3338 32.1249 71.397C32.0754 71.4601 32.0577 71.4812 32.0188 71.5233C31.9799 71.5654 31.9233 71.6496 31.8738 71.7128C31.8394 71.7521 31.8086 71.7944 31.7818 71.8391L31.5979 72.0708C31.5802 72.1023 31.5484 72.1374 31.5307 72.169C31.4458 72.2848 31.3538 72.4041 31.2725 72.5199C31.1911 72.6393 31.1062 72.7551 31.0284 72.8709C31.0107 72.906 30.9825 72.9446 30.9577 72.9832C30.9011 73.0744 30.8339 73.1657 30.7738 73.2604C30.7136 73.3552 30.7172 73.3517 30.6818 73.3973C30.6464 73.4429 30.5686 73.5692 30.5085 73.6605L30.4201 73.8149C30.3706 73.9061 30.3069 74.0009 30.2503 74.0921C30.1937 74.1834 30.1866 74.2009 30.1583 74.2571C30.13 74.3132 30.0522 74.443 29.9921 74.5343C29.932 74.6255 29.9249 74.6501 29.893 74.7062C29.8612 74.7624 29.7799 74.9028 29.7268 75.001C29.6738 75.0993 29.6667 75.1168 29.6384 75.18C29.3802 75.6502 29.129 76.138 28.8708 76.6644L27.5798 76.8785C27.838 76.2188 28.0927 75.6187 28.3721 75.0537L26.2499 77.991L28.3721 77.7874C26.5718 81.8898 25.2525 87.2625 25.2525 94.9058L26.9644 93.832C28.4747 102.367 35.5629 106.115 35.5629 106.115V106.062C39.7456 108.759 44.4804 110.499 49.4246 111.157V111.157C50.132 111.249 50.7403 111.301 50.8712 111.315C50.9602 111.33 51.0499 111.339 51.14 111.343C53.8824 111.581 56.6434 111.501 59.3672 111.105C59.3672 111.203 59.3672 111.305 59.3672 111.407C59.3672 113.095 60.3151 114.488 61.5212 114.604C59.0453 118.783 57.0398 124.338 57.0327 124.363C56.9348 124.685 56.767 124.982 56.5411 125.233C56.0899 125.334 55.6447 125.459 55.2076 125.609V125.609C54.9812 125.388 53.0253 125.026 51.0339 125.767C51.032 125.774 51.032 125.781 51.0339 125.788C49.7288 126.365 48.6714 127.382 48.0487 128.658C48.8586 128.013 50.369 126.956 51.5857 127.1C50.1284 127.925 47.6136 129.497 47.3236 131.761C47.3236 131.761 56.0636 125.675 60.3717 126.798C60.3717 126.798 59.7456 127.5 61.2277 130.136L61.9032 127.679C62.6814 125.307 59.689 124.956 58.4299 124.907C58.4314 124.898 58.4314 124.888 58.4299 124.879C58.4299 124.879 58.5678 124.496 58.8119 123.868C59.5546 121.97 61.2878 117.769 63.173 114.768C63.2029 114.707 63.2289 114.644 63.2508 114.579L62.8971 114.095C63.0376 113.946 63.1676 113.788 63.2862 113.621C63.6683 113.042 63.8779 112.368 63.891 111.677C63.8629 110.755 63.6349 109.85 63.2225 109.024L64.3438 108.508C64.4051 108.648 64.4652 108.782 64.5242 108.908L64.5702 109.038C64.6055 109.129 64.6409 109.22 64.6727 109.308C64.7046 109.396 64.7081 109.399 64.7222 109.445C64.7541 109.547 64.7824 109.638 64.8178 109.726C64.8178 109.754 64.839 109.792 64.846 109.824L71.241 107.908L69.8262 106.75L69.7625 106.687L69.7307 106.662L45.5657 84.8025C52.286 88.0521 60.1347 91.8211 73.441 97.9449C86.5493 103.942 94.8507 107.42 99.1341 109.175C99.1668 109.195 99.2011 109.213 99.2367 109.227V109.227L100.842 109.873L102.664 110.575C102.738 110.533 102.823 110.512 102.897 110.473L54.0086 77.1873L84.2467 56.4614ZM50.4008 66.7226L43.111 72.2287L48.3458 60.8059C49.2299 62.7088 49.9207 64.6943 50.4079 66.7331L50.4008 66.7226ZM76.4334 106.111L76.6173 106.981L85.138 111.972L87.2921 113.214L86.1142 110.203C93.1423 112.259 98.8688 112.375 102.675 110.596C96.0215 112.54 79.5919 107.045 76.4157 106.111H76.4334Z" fill="#DB1F26"/>
<path d="M30.5353 62.3008C30.5353 63.4694 33.1916 63.315 33.1916 63.315C33.1916 62.2411 31.1755 60.9497 31.1755 60.9497C29.889 61.4057 28.4829 61.4057 27.1964 60.9497C26.3707 60.685 25.4806 60.6936 24.6603 60.9743C23.8542 61.546 23.0917 62.1758 22.3789 62.8588C27.1362 61.1041 30.5353 62.3008 30.5353 62.3008ZM48.3266 60.8058L43.0918 72.2286L50.3816 66.7225C49.8957 64.6876 49.2074 62.7057 48.3266 60.8058ZM102.687 110.585C102.687 110.585 86.3109 104.49 45.5642 84.8025L69.8495 106.76C72.0248 105.862 73.5528 105.227 76.5699 106.981L76.3895 106.111C79.5834 107.044 96.0766 112.561 102.687 110.585ZM63.2564 109.052C63.6688 109.878 63.8968 110.783 63.9249 111.705C63.9118 112.396 63.7022 113.07 63.3201 113.649C63.2015 113.816 63.0715 113.974 62.931 114.123L63.6561 115.112C63.734 115.063 65.1558 113.996 65.1558 111.705C65.1287 110.608 64.862 109.531 64.3742 108.546L63.2564 109.052ZM48.6379 111.687C49.7945 111.87 50.8485 111.964 50.8485 111.964L50.9016 111.357C50.9016 111.357 49.8723 111.266 48.7404 111.084L48.6379 111.687ZM47.8137 59.7671C47.2165 58.6282 46.4992 57.5554 45.6738 56.5666L39.1657 61.3006C36.5377 62.6798 35.1511 60.7918 35.1511 60.7918C35.6619 61.2237 36.3122 61.4591 36.9833 61.455C37.7111 61.4644 38.4131 61.1878 38.9359 60.6854C39.4588 60.1831 39.7601 59.4959 39.7741 58.7739C39.7783 58.4118 39.7047 58.0529 39.5583 57.7211C39.3124 57.1815 38.8966 56.7357 38.3734 56.4508V56.4508C38.3734 56.4508 37.8004 56.1174 37.9206 55.5805C38.0409 55.0435 39.0631 53.9802 39.0631 53.9802L42.2464 50.7552L42.296 50.6955L45.1963 47.7687L46.6112 46.365C46.8729 46.0773 47.0321 45.8913 47.0321 45.8913L43.2474 47.4915C43.2474 47.4915 43.1767 47.4529 43.541 46.7896C43.9053 46.1264 44.7967 44.8981 44.7967 44.8981L37.7721 49.8743C38.1789 47.9196 42.5648 42.0731 42.5648 42.0731L37.9313 46.2843C37.62 44.8139 40.3294 39.2411 40.3294 39.2411C39.2469 40.3204 38.2654 41.495 37.3972 42.7504C37.3972 41.1397 38.6245 38.8411 38.6245 38.8411C32.9971 44.4279 31.4337 51.4219 31.0411 54.0223C30.2241 54.5277 30.7263 53.9135 30.3337 54.8435C26.5561 55.8963 24.4092 59.2477 23.9211 60.0794C26.9877 56.3244 30.8466 56.6999 30.8466 56.6999C30.8466 56.6999 35.4447 65.1503 33.4498 64.4695C31.4549 63.7887 32.3887 67.1366 32.3887 67.1366L28.6395 65.5364C29.262 66.7576 30.4823 69.6352 29.7819 72.6287C28.8826 73.9961 28.1354 75.4563 27.5536 76.9837L28.8446 76.7697C29.0957 76.2327 29.3469 75.7449 29.598 75.2782C29.6334 75.2185 29.6723 75.1589 29.7006 75.0992C29.7289 75.0396 29.8067 74.9062 29.8668 74.808L29.9659 74.629C30.0189 74.5377 30.0649 74.45 30.125 74.3588L30.2241 74.1868C30.2807 74.0956 30.3302 74.0008 30.3938 73.9166C30.4196 73.8643 30.4492 73.8138 30.4823 73.7657L30.6556 73.4955C30.6805 73.4452 30.7113 73.3981 30.7475 73.3551C30.8039 73.2618 30.8653 73.1716 30.9315 73.0849C30.9514 73.0431 30.975 73.0031 31.0022 72.9656C31.08 72.8463 31.1649 72.7304 31.2463 72.6146C31.2463 72.6146 31.2463 72.6146 31.2463 72.5971C31.3276 72.4743 31.4125 72.362 31.4974 72.2462C31.5221 72.2181 31.5469 72.1795 31.5717 72.1479L31.7485 71.9093C31.7785 71.8671 31.8116 71.8273 31.8476 71.79L31.989 71.5934C32.0274 71.5549 32.0618 71.5125 32.0916 71.4671L32.2296 71.2986C32.2677 71.2589 32.3031 71.2167 32.3357 71.1723C32.3852 71.1162 32.4206 71.067 32.4665 71.0179C32.5125 70.9688 32.5337 70.9337 32.5691 70.8951C32.6045 70.8565 32.654 70.7968 32.6964 70.7512L32.7955 70.6354C32.8357 70.5918 32.8735 70.5462 32.9087 70.4985C32.9476 70.4669 32.9794 70.4213 33.0148 70.3897L33.1315 70.2704C33.1633 70.2248 33.1916 70.2037 33.2235 70.1651C33.265 70.128 33.304 70.0881 33.3402 70.0458L33.4321 69.9476C33.4643 69.9082 33.5011 69.8728 33.5418 69.8423L33.6196 69.7616L33.7293 69.6493C33.7611 69.6282 33.7788 69.6001 33.8035 69.5826L33.9698 69.4177C33.9956 69.4006 34.0194 69.3806 34.0405 69.358C34.0685 69.3261 34.0993 69.2968 34.1325 69.2703C34.1502 69.2492 34.1855 69.2247 34.1997 69.2071C34.2311 69.1848 34.2585 69.1575 34.281 69.1264C34.3129 69.1264 34.3235 69.0948 34.3553 69.0808C34.3768 69.0552 34.4018 69.0327 34.4296 69.0141C34.4455 68.9948 34.4632 68.9772 34.4826 68.9614C34.5074 68.9614 34.5251 68.9228 34.5499 68.9088C34.5718 68.8961 34.5901 68.8779 34.6029 68.8562C34.6029 68.8562 34.6418 68.8281 34.6595 68.8176C34.6769 68.8034 34.6935 68.7882 34.709 68.7719C34.7286 68.7653 34.7458 68.7531 34.7585 68.7369C34.7746 68.729 34.788 68.7168 34.7974 68.7018C34.8135 68.6937 34.8289 68.6843 34.8434 68.6737C34.8434 68.6737 34.8647 68.6526 34.8717 68.6456L34.9177 68.6246V68.607C34.9177 68.607 34.9389 68.607 34.9495 68.5824C34.9602 68.5579 34.9672 68.5824 34.9672 68.5824C34.9672 68.5824 34.9672 68.5824 34.9955 68.5824L34.9 69.0316L33.7293 74.4851C38.1895 68.979 44.733 62.6587 47.8137 59.7671ZM34.7939 59.1986L35.3032 59.0336C35.317 59.0984 35.3396 59.1609 35.3704 59.2196C35.4966 59.534 35.7144 59.8038 35.9961 59.9945C36.2778 60.1852 36.6105 60.2881 36.9515 60.29C37.1652 60.2945 37.3774 60.2539 37.574 60.1706C37.8998 60.0391 38.1748 59.808 38.3592 59.5109L37.8322 59.1986C37.8999 59.0498 37.9337 58.888 37.9313 58.7248C37.9279 58.5362 37.887 58.3502 37.811 58.1773L38.9605 57.7878C39.0811 58.0654 39.1424 58.3647 39.1406 58.6669C39.1389 58.9691 39.0741 59.2677 38.9504 59.5439C38.8266 59.82 38.6466 60.0678 38.4217 60.2716C38.1967 60.4753 37.9317 60.6307 37.6432 60.7279C37.3548 60.825 37.0492 60.8619 36.7457 60.8362C36.4422 60.8105 36.1473 60.7227 35.8797 60.5784C35.612 60.4341 35.3774 60.2363 35.1905 59.9977C35.0037 59.759 34.8686 59.4845 34.7939 59.1915V59.1986Z" fill="#010101"/>
<path d="M114.375 90.6068C114.375 75.222 126.217 65.575 140.761 65.575C151.655 65.575 158.231 71.3056 161.594 77.3276L151.068 82.7705C149.24 79.5771 145.515 76.6012 140.761 76.6012C132.796 76.6012 127.168 82.6232 127.168 90.6068C127.168 98.5168 132.796 104.609 140.761 104.609C144.344 104.609 147.998 103.16 149.752 101.707V97.9343H138.788V86.9782H162.327V106.206C157.134 111.94 149.972 115.639 140.751 115.639C126.217 115.639 114.375 105.988 114.375 90.6068Z" fill="white"/>
<path d="M180.668 114.768V66.3716H216.392V77.2504H193.224V84.8025H215.883V95.6813H193.242V103.883H216.41V114.761L180.668 114.768Z" fill="white"/>
<path d="M267.797 114.768L265.384 107.802H246.161L243.766 114.768H229.512L247.858 66.3716H263.722L282.065 114.768H267.797ZM255.81 78.7068L249.595 96.9201H261.95L255.81 78.7068Z" fill="white"/>
<path d="M323.787 114.768L315.598 98.5239H309.168V114.775H296.594V66.3716H320.999C331.816 66.3716 337.956 73.4814 337.956 82.4793C337.956 90.9016 332.838 95.3971 328.233 96.9903L338.175 114.768H323.787ZM325.173 82.4056C325.173 79.0683 322.471 77.2539 319.107 77.2539H309.168V87.645H319.107C322.471 87.645 325.173 85.8167 325.173 82.4056V82.4056Z" fill="white"/>
<path d="M119.809 48.804C119.809 45.0701 122.751 42.5469 126.529 42.5469C127.548 42.5109 128.559 42.7416 129.46 43.2159C130.361 43.6902 131.12 44.3914 131.661 45.249L129.758 46.193C129.412 45.6545 128.935 45.2114 128.371 44.9047C127.806 44.5979 127.173 44.4376 126.529 44.4384C125.361 44.4384 124.241 44.8987 123.415 45.7181C122.589 46.5374 122.125 47.6487 122.125 48.8075C122.125 49.9662 122.589 51.0775 123.415 51.8969C124.241 52.7162 125.361 53.1766 126.529 53.1766C127.171 53.1714 127.803 53.0084 128.366 52.7022C128.93 52.396 129.408 51.9562 129.758 51.4219L131.682 52.3308C131.135 53.19 130.373 53.8938 129.469 54.3735C128.566 54.8532 127.553 55.0925 126.529 55.0681C122.751 55.0611 119.809 52.5203 119.809 48.804Z" fill="white"/>
<path d="M138.191 54.8434V42.7468H142.959C146.977 42.7468 149.68 45.249 149.68 48.7863C149.68 52.3237 146.988 54.8434 142.988 54.8434H138.191ZM147.366 48.7863C147.366 46.4632 145.828 44.6138 142.981 44.6138H140.444V52.9765H142.959C145.75 52.9765 147.366 51.0885 147.366 48.7863Z" fill="white"/>
<path d="M166.238 54.8434V42.7468H171.898C174.589 42.7468 176.068 44.4699 176.068 46.5369C176.068 48.6039 174.568 50.3094 171.898 50.3094H168.491V54.8434H166.238ZM173.758 46.5369C173.758 45.3753 172.853 44.6138 171.583 44.6138H168.488V48.4424H171.583C172.853 48.4424 173.758 47.6809 173.758 46.5369V46.5369Z" fill="white"/>
<path d="M190.004 54.8434L187.175 50.3269H184.925V54.8434H182.672V42.7468H188.306C190.846 42.7468 192.519 44.2874 192.519 46.5369C192.551 47.403 192.254 48.2495 191.687 48.9086C191.119 49.5676 190.323 49.9912 189.456 50.0953L192.607 54.8469L190.004 54.8434ZM190.216 46.5193C190.216 45.3577 189.29 44.6138 188.023 44.6138H184.929V48.474H188.023C189.297 48.46 190.206 47.6985 190.206 46.5193H190.216Z" fill="white"/>
<path d="M198.918 48.804C198.918 45.1964 201.631 42.5469 205.479 42.5469C209.327 42.5469 212.037 45.1964 212.037 48.804C212.037 52.4115 209.306 55.0611 205.479 55.0611C201.652 55.0611 198.918 52.4115 198.918 48.804ZM209.727 48.804C209.727 46.3018 208.054 44.4349 205.483 44.4349C202.911 44.4349 201.238 46.3018 201.238 48.804C201.238 51.3061 202.89 53.1731 205.483 53.1731C208.075 53.1731 209.727 51.2886 209.727 48.804Z" fill="white"/>
<path d="M217.305 53.7731L218.366 52.1588C218.637 52.4738 218.973 52.7273 219.351 52.9023C219.73 53.0773 220.141 53.1696 220.559 53.173C220.856 53.1909 221.153 53.1468 221.431 53.0435C221.71 52.9402 221.964 52.7799 222.176 52.5731C222.388 52.3663 222.554 52.1176 222.663 51.8431C222.772 51.5686 222.821 51.2744 222.808 50.9797V42.7468H225.058V50.9972C225.058 53.7555 223.215 55.061 220.732 55.061C220.103 55.0866 219.475 54.9857 218.886 54.7643C218.297 54.543 217.759 54.2058 217.305 53.7731V53.7731Z" fill="white"/>
<path d="M232.504 54.8434V42.7468H241.29V44.6138H234.753V47.7336H241.155V49.6005H234.753V52.9765H241.29V54.8434H232.504Z" fill="white"/>
<path d="M255.988 54.8434L251.701 49.7444L250.566 50.9937V54.854H248.312V42.7468H250.566V48.4951L255.585 42.7468H258.372L253.162 48.4424L258.775 54.8434H255.988Z" fill="white"/>
<path d="M268.031 54.8434V44.6138H264.141V42.7468H274.161V44.6138H270.295V54.8434H268.031Z" fill="white"/>
<path d="M297.786 54.8434L294.956 50.3269H292.707V54.8434H290.457V42.7468H296.095C298.631 42.7468 300.304 44.2874 300.304 46.5369C300.336 47.4019 300.04 48.2475 299.474 48.9064C298.909 49.5653 298.114 49.9896 297.248 50.0953L300.4 54.8469L297.786 54.8434ZM297.998 46.5193C297.998 45.3577 297.075 44.6138 295.805 44.6138H292.71V48.474H295.805C297.075 48.46 297.998 47.6985 297.998 46.5193Z" fill="white"/>
<path d="M307.266 54.8434V42.7468H316.055V44.6138H309.519V47.7336H315.921V49.6005H309.519V52.9765H316.055V54.8434H307.266Z" fill="white"/>
<path d="M323.082 54.8434V42.7468H327.85C331.868 42.7468 334.57 45.249 334.57 48.7863C334.57 52.3237 331.875 54.8434 327.875 54.8434H323.082ZM332.254 48.7863C332.254 46.4632 330.715 44.6138 327.868 44.6138H325.332V52.9765H327.85C330.637 52.9765 332.254 51.0885 332.254 48.7863Z" fill="white"/>
<path d="M362.531 18.0588H355.942L355.945 18.0764H78.8465L76.222 23.7825H357.498L359.383 25.653L359.422 25.6635V139.119L359.383 139.13L357.48 141.018H7.22858L5.32566 139.13L5.28675 139.119V25.6635L5.32566 25.653L7.21089 23.7825H29.5544L32.1718 18.0764H8.76365L8.76719 18.0588H2.17769L-0.460938 20.6803V20.6978V27.183V137.603V144.103V144.106L2.17769 146.724H8.76719H355.942H362.531L365.17 144.106V144.103V137.603V27.183V20.6978V20.6803L362.531 18.0588Z" fill="white"/>
</g>
</g>
<defs>
<clipPath id="clip0_2956_128515">
<rect width="364.444" height="146.667" fill="white"/>
</clipPath>
<clipPath id="clip1_2956_128515">
<rect width="424.444" height="187.046" fill="white" transform="translate(-30 -10.9666)"/>
</clipPath>
</defs>
</svg>
